<?xml version="1.0" encoding="UTF-8"?>
<svg width="10px" height="14px" viewBox="0 0 10 14" version="1.1" xmlns="http://www.w3.org/2000/svg" xmlns:xlink="http://www.w3.org/1999/xlink">
    <!-- Generator: Sketch 54.1 (76490) - https://sketchapp.com -->
    <title>2</title>
    <desc>Created with Sketch.</desc>
    <g id="Page-1" stroke="none" stroke-width="1" fill="none" fill-rule="evenodd">
        <g id="Desktop---HD-Display-Copy-4" transform="translate(-714.000000, -803.000000)" fill="#2F3034" fill-rule="nonzero">
            <path d="M721.952,814.056 C722.6,814.344 722.798,813.12 722.96,812.4 L723.23,812.4 L723.068,813.3 C722.636,815.712 721.718,816.684 719.774,816.396 C718.19,816.162 716.084,815.658 714.59,816 L714.41,815.64 C717.11,813.318 719.378,809.322 719.63,807.36 C720.026,804.264 719.45,803.58 718.55,803.58 C717.83,803.58 717.272,804.084 717.56,805.704 C717.632,806.082 717.38,806.82 716.48,806.82 C715.49,806.82 715.148,806.1 715.202,805.47 C715.31,804.3 716.552,803.22 718.82,803.22 C721.25,803.22 722.6,804.624 722.6,806.82 C722.6,810.582 718.19,811.896 716.336,814.11 C718.73,812.922 719.846,813.12 721.952,814.056 Z" id="2"></path>
        </g>
    </g>
</svg>