<?xml version="1.0" encoding="UTF-8"?>
<svg width="10px" height="14px" viewBox="0 0 10 14" version="1.1" xmlns="http://www.w3.org/2000/svg" xmlns:xlink="http://www.w3.org/1999/xlink">
    <!-- Generator: Sketch 54.1 (76490) - https://sketchapp.com -->
    <title>3</title>
    <desc>Created with Sketch.</desc>
    <g id="Page-1" stroke="none" stroke-width="1" fill="none" fill-rule="evenodd">
        <g id="Desktop---HD-Display-Copy-4" transform="translate(-1115.000000, -803.000000)" fill="#2F3034" fill-rule="nonzero">
            <path d="M1119.145,809.52 C1118.335,809.52 1117.219,809.88 1117.219,809.34 C1117.219,808.818 1118.209,809.16 1118.785,809.16 C1119.883,809.16 1120.855,807.954 1120.855,806.226 C1120.855,804.75 1120.783,803.58 1119.559,803.58 C1118.839,803.58 1118.479,804.39 1118.569,805.704 C1118.587,806.082 1118.389,806.73 1117.489,806.73 C1116.499,806.73 1116.211,806.1 1116.211,805.47 C1116.211,804.318 1117.399,803.22 1119.829,803.22 C1122.259,803.22 1123.681,804.57 1123.681,806.172 C1123.681,807.576 1122.439,808.98 1120.675,809.304 L1120.675,809.34 C1122.457,809.502 1124.149,810.672 1124.149,812.58 C1124.149,814.884 1122.259,816.18 1119.469,816.18 C1117.219,816.18 1115.851,815.082 1115.851,813.93 C1115.851,813.3 1116.139,812.67 1117.219,812.67 C1118.119,812.67 1118.317,813.228 1118.299,813.606 C1118.209,814.92 1118.479,815.82 1119.379,815.82 C1120.585,815.82 1120.999,815.046 1120.999,812.652 C1120.999,811.122 1120.279,809.52 1119.145,809.52 Z" id="3"></path>
        </g>
    </g>
</svg>