<?xml version="1.0" encoding="UTF-8"?>
<svg width="143px" height="80px" viewBox="0 0 143 80" version="1.1" xmlns="http://www.w3.org/2000/svg" xmlns:xlink="http://www.w3.org/1999/xlink">
    <!-- Generator: Sketch 54.1 (76490) - https://sketchapp.com -->
    <title>Group 42</title>
    <desc>Created with Sketch.</desc>
    <defs>
        <polygon id="path-1" points="0 80 143 80 143 0 0 0"></polygon>
    </defs>
    <g id="Page-1" stroke="none" stroke-width="1" fill="none" fill-rule="evenodd">
        <g id="Desktop---HD-Display-Copy-4" transform="translate(-249.000000, -713.000000)">
            <g id="Group-42" transform="translate(249.000000, 713.000000)">
                <path d="M134.655325,26.2173738 C133.039904,25.561023 131.470747,24.4907501 130.116723,23.1219232 C128.818988,21.810001 127.788819,20.2907279 127.137253,18.7301407 C126.996916,18.3941701 126.729349,18.140828 126.383133,18.0168852 C126.006843,17.8820293 125.582747,17.9163279 125.220337,18.111986 C123.47306,19.0567571 121.263133,19.5774725 119,19.5774725 C116.736867,19.5774725 114.52694,19.0567571 112.779663,18.111986 C112.418024,17.9163279 111.993928,17.8820293 111.616867,18.0168852 C111.270651,18.140828 111.003084,18.3941701 110.862747,18.7301407 C110.211181,20.2915075 109.181012,21.810001 107.883277,23.1219232 C106.529253,24.4899705 104.960096,25.5602434 103.345446,26.2173738 L103,25.3489951 C104.50053,24.7394151 105.963277,23.740078 107.229398,22.4601158 C108.443084,21.2331605 109.404627,19.8175629 110.010699,18.3668871 C110.252819,17.786149 110.713157,17.3488416 111.307663,17.1352547 C111.929928,16.9115342 112.625446,16.9676592 113.215325,17.2864805 C114.832289,18.1610953 116.886458,18.6420556 119,18.6420556 C121.113542,18.6420556 123.168482,18.1610953 124.783904,17.2864805 C125.375325,16.9684387 126.070843,16.9123137 126.691566,17.1352547 C127.286843,17.3480621 127.747952,17.7853695 127.990072,18.3661076 C128.595373,19.8175629 129.556916,21.232381 130.771373,22.4601158 C132.037494,23.7408575 133.500241,24.7394151 135,25.3497746 L134.655325,26.2173738 Z M119.737157,42.3611114 C119.584482,42.3611114 119.430265,42.3805993 119.279133,42.4203545 C118.301398,42.6736966 117.709976,43.6847264 117.960578,44.6731503 C118.08241,45.1525515 118.38159,45.5547808 118.801831,45.8057844 C119.222843,46.0575674 119.715566,46.1277237 120.189783,46.00534 C120.663229,45.8829563 121.061108,45.5805048 121.310169,45.1548901 C121.559229,44.7292753 121.628627,44.2311658 121.507566,43.7525441 C121.385735,43.273143 121.086554,42.8709137 120.665542,42.6199101 C120.380241,42.448417 120.061012,42.3611114 119.737157,42.3611114 L119.737157,42.3611114 Z M119.729446,47 C119.24212,47 118.761735,46.8682621 118.33147,46.6110225 C117.697639,46.2321786 117.247325,45.6264961 117.064578,44.9062251 C116.686747,43.4173531 117.577349,41.896521 119.048578,41.5145591 C119.762602,41.3298142 120.502843,41.4350486 121.136675,41.814672 C121.770506,42.1935159 122.220819,42.7984189 122.403566,43.5194694 C122.587084,44.24052 122.481446,44.9904126 122.106699,45.6311732 C121.731952,46.2719338 121.132819,46.7263905 120.420337,46.9111354 C120.191325,46.971158 119.959229,47 119.729446,47 L119.729446,47 Z" id="Fill-1" fill="#4A4B4E"></path>
                <mask id="mask-2" fill="white">
                    <use xlink:href="#path-1"></use>
                </mask>
                <g id="Clip-4"></g>
                <polygon id="Fill-3" fill="#FCD470" mask="url(#mask-2)" points="12 51 29 51 29 5 12 5"></polygon>
                <polygon id="Fill-5" fill="#FCD470" mask="url(#mask-2)" points="38 59 42 59 42 55 38 55"></polygon>
                <polygon id="Fill-6" fill="#FCD470" mask="url(#mask-2)" points="48 59 52 59 52 55 48 55"></polygon>
                <path d="M36.3937806,44 L70.2855279,44 C71.2327933,44 72,43.2305903 72,42.2806048 C72,41.3314045 71.2327933,40.5612097 70.2855279,40.5612097 L39.6254431,40.5612097 C39.516625,40.5612097 39.4281614,40.472492 39.4281614,40.3633614 L39.4281614,18.7193952 C39.4281614,17.7694097 38.6609547,17 37.7144721,17 C36.7672067,17 36,17.7694097 36,18.7193952 L36,43.6050887 C36,43.8225647 36.1761444,44 36.3937806,44" id="Fill-7" fill="#FCD470" mask="url(#mask-2)"></path>
                <path d="M45.6829046,35 L47.3170954,35 C47.6940587,35 48,34.6590996 48,34.2390615 L48,29.7609385 C48,29.3409004 47.6940587,29 47.3170954,29 L45.6829046,29 C45.3059413,29 45,29.3409004 45,29.7609385 L45,34.2390615 C45,34.6590996 45.3059413,35 45.6829046,35" id="Fill-8" fill="#FCD470" mask="url(#mask-2)"></path>
                <path d="M51.6829046,35 L53.3170954,35 C53.6940587,35 54,34.6824947 54,34.2912828 L54,31.7087172 C54,31.3175053 53.6940587,31 53.3170954,31 L51.6829046,31 C51.3059413,31 51,31.3175053 51,31.7087172 L51,34.2912828 C51,34.6824947 51.3059413,35 51.6829046,35" id="Fill-9" fill="#FCD470" mask="url(#mask-2)"></path>
                <path d="M64.6829046,35 L66.3170954,35 C66.6940587,35 67,34.6815468 67,34.2891669 L67,30.7108331 C67,30.3184532 66.6940587,30 66.3170954,30 L64.6829046,30 C64.3059413,30 64,30.3184532 64,30.7108331 L64,34.2891669 C64,34.6815468 64.3059413,35 64.6829046,35" id="Fill-10" fill="#FCD470" mask="url(#mask-2)"></path>
                <path d="M58.6829046,35 L60.3170954,35 C60.6940587,35 61,34.6521494 61,34.2235477 L61,24.7764523 C61,24.3478506 60.6940587,24 60.3170954,24 L58.6829046,24 C58.3059413,24 58,24.3478506 58,24.7764523 L58,34.2235477 C58,34.6521494 58.3059413,35 58.6829046,35" id="Fill-11" fill="#FCD470" mask="url(#mask-2)"></path>
                <path d="M70.6498883,67 L19.3508889,67 C16.8350587,67 14.5368473,68.4673299 13.4246592,70.7848809 L9,80 L13.6018631,80 L16.7961981,73.3467207 C17.4638219,71.9560305 18.8425933,71.0754729 20.351936,71.0754729 L69.648064,71.0754729 C71.1574067,71.0754729 72.5361781,71.9560305 73.2038019,73.3467207 L76.3981369,80 L81,80 L76.576118,70.7848809 C75.4631527,68.4673299 73.1657185,67 70.6498883,67" id="Fill-12" fill="#FCD470" mask="url(#mask-2)"></path>
                <path d="M1,79.5 L90,79.5" id="Fill-13" fill="#FFFFFF" mask="url(#mask-2)"></path>
                <path d="M28.5,5 L28.5,51" id="Fill-14" fill="#FFFFFF" mask="url(#mask-2)"></path>
                <path d="M50,10.5 L36,10.5" id="Fill-15" fill="#FFFFFF" mask="url(#mask-2)"></path>
                <path d="M66,10.5 L72,10.5" id="Fill-16" fill="#FFFFFF" mask="url(#mask-2)"></path>
                <path d="M67.7895,11 L67.2105,14" id="Fill-17" fill="#FFFFFF" mask="url(#mask-2)"></path>
                <path d="M70.2105,11 L70.7895,14" id="Fill-18" fill="#FFFFFF" mask="url(#mask-2)"></path>
                <path d="M120.121849,46.9207344 C118.784873,47.2644129 117.422688,46.4585751 117.07899,45.1216743 C116.736133,43.7847735 117.541175,42.4226639 118.878151,42.0789855 C120.215127,41.7361473 121.577312,42.5411448 121.92101,43.8780456 C122.263867,45.2149465 121.458825,46.577056 120.121849,46.9207344" id="Fill-19" fill="#FCD470" mask="url(#mask-2)"></path>
                <path d="M119.5,24 L119.5,33" id="Fill-20" fill="#FFFFFF" mask="url(#mask-2)"></path>
                <path d="M135.6475,28 C135.6845,28.5677545 135.7025,29.1513009 135.7025,29.7483832 C135.7025,30.812453 135.5635,31.9035945 135.2975,33" id="Fill-21" fill="#FFFFFF" mask="url(#mask-2)"></path>
                <path d="M102.696,33 C102.439,31.9095745 102.304,30.825228 102.304,29.7682371 C102.304,29.1641337 102.323,28.5744681 102.36,28" id="Fill-22" fill="#FFFFFF" mask="url(#mask-2)"></path>
                <path d="M119.382299,42.2516328 C119.537184,42.2112211 119.692068,42.1918235 119.843792,42.1918235 C120.671163,42.1918235 121.427412,42.7616276 121.642354,43.6175461 C121.896808,44.6318781 121.297814,45.6688407 120.306077,45.9290916 C119.314339,46.1885343 118.300475,45.5767022 118.046811,44.5631783 C117.791567,43.5488463 118.391351,42.5118837 119.382299,42.2516328 M119.844583,47 C120.078491,47 120.315559,46.9700954 120.551838,46.9078615 C121.48826,46.6621587 122.193144,45.9622292 122.506865,45.0998449 C122.856937,45.0642826 123.341347,45.0351863 123.928488,45.0004323 C127.680497,44.77736 134.665334,44.3627366 137.867343,40.849349 C138.053047,40.6456744 138.042774,40.3256142 137.842846,40.1356795 C137.643708,39.9457448 137.330777,39.9562518 137.145073,40.1607347 C134.212532,43.3775009 127.228485,43.7921243 123.871591,43.9917578 C123.407727,44.0192377 123.011822,44.0434847 122.679135,44.0709646 C122.677555,43.8373854 122.658589,43.6021896 122.599322,43.3669939 C122.208949,41.8135706 120.653778,40.8744042 119.136537,41.2728629 C117.617716,41.6721299 116.69947,43.2611154 117.089843,44.8137305 C117.419369,46.1254922 118.577845,47 119.844583,47" id="Fill-23" fill="#4A4B4E" mask="url(#mask-2)"></path>
                <path d="M133.571809,72.8162238 C129.475834,74.2611264 124.609554,75.0252951 119.500393,75.0252951 C114.390446,75.0252951 109.524166,74.2611264 105.428977,72.8162238 C98.8963249,70.5120214 95.982531,68.0822769 95.982531,64.9367092 C95.982531,61.7911414 98.8963249,59.361397 105.428977,57.0571945 C107.799628,56.2205078 110.460322,55.6115122 113.334028,55.241904 C113.548613,56.5035621 114.046953,57.6989402 114.811755,58.7555204 L116.61411,61.2429674 C116.80197,61.5026287 116.747734,61.8566416 116.49149,62.050023 L111.224338,66.017462 C111.008181,66.1804327 110.966522,66.4861001 111.130801,66.7005352 C111.226696,66.826857 111.373683,66.8931369 111.522241,66.8931369 C111.625997,66.8931369 111.729752,66.8603868 111.818573,66.7933271 L117.085725,62.8266679 C117.769566,62.311244 117.912623,61.3661701 117.411139,60.6745194 L115.60957,58.1862927 C114.683633,56.9090394 114.194726,55.4017557 114.194726,53.8274122 L114.194726,49.996432 C115.841448,50.7543625 117.619436,51.1910304 119.500393,51.1910304 C121.281525,51.1910304 123.075234,50.7785352 124.805274,49.9855153 L124.805274,53.8274122 C124.805274,55.4017557 124.316367,56.9090394 123.39043,58.1862927 L121.588861,60.6745194 C121.087377,61.3661701 121.230434,62.311244 121.914275,62.8258882 L127.181427,66.7933271 C127.270248,66.8603868 127.374789,66.8931369 127.478545,66.8931369 C127.627103,66.8931369 127.773304,66.826857 127.869985,66.7005352 C128.034264,66.4861001 127.991819,66.1804327 127.775662,66.017462 L122.50851,62.050023 C122.252266,61.8566416 122.198816,61.5026287 122.386676,61.2429674 L124.188245,58.7555204 C124.953833,57.6989402 125.451387,56.5035621 125.665972,55.241904 C128.538892,55.6107324 131.199586,56.2205078 133.571809,57.0571945 C140.104461,59.361397 143.017469,61.7911414 143.017469,64.9367092 C143.017469,68.0822769 140.104461,70.5120214 133.571809,72.8162238 M133.901153,56.1386326 C131.457402,55.2762137 128.72125,54.6500632 125.770513,54.2718777 C125.778373,54.1245023 125.787805,53.9763472 125.787805,53.8274122 L125.787805,49.6018714 C125.787805,49.5660023 125.775229,49.5355915 125.767369,49.5020616 C126.451996,49.1269952 127.123262,48.6918869 127.777234,48.195957 C127.992605,48.0329864 128.034264,47.7273189 127.869199,47.5128838 C127.70492,47.2992285 127.396798,47.2586808 127.180641,47.4216514 C124.768331,49.2494181 122.112353,50.2163254 119.500393,50.2163254 C112.357786,50.2163254 106.751857,43.3855933 104.566708,37.0398743 C104.503826,36.8566298 104.338761,36.7287485 104.144613,36.7115937 C101.684355,36.5002776 99.8285503,34.8003922 99.8285503,32.7566309 C99.8285503,30.0360345 101.388024,29.3319077 102.453087,29.1697168 C102.446799,29.4590092 102.432651,29.740504 102.432651,30.0368143 C102.432651,31.1347219 102.538764,32.2801952 102.748632,33.4389244 C102.791078,33.6751929 102.998588,33.8405028 103.231252,33.8405028 C103.260335,33.8405028 103.289418,33.8381635 103.3185,33.8327052 C103.585749,33.7851396 103.76339,33.5324961 103.715443,33.2673763 C103.515793,32.1647901 103.415182,31.0777992 103.415182,30.0368143 C103.415182,29.5018962 103.430116,28.9833532 103.452125,28.4718281 C103.473347,28.4016493 103.499286,28.3330301 103.504788,28.2566132 C104.212211,17.435829 110.192287,10.9747049 119.500393,10.9747049 C128.807713,10.9747049 134.787789,17.435829 135.495212,28.2566132 C135.500714,28.3330301 135.526653,28.4008696 135.547875,28.4702685 C135.569884,28.9833532 135.585605,29.5018962 135.585605,30.0368143 C135.585605,31.094954 135.481063,32.1998795 135.275125,33.32118 C135.226391,33.58552 135.403247,33.8397231 135.670495,33.8872887 C135.700364,33.892747 135.729447,33.8950863 135.75853,33.8950863 C135.991979,33.8950863 136.198704,33.7305561 136.241149,33.4950674 C136.458092,32.3168441 136.568136,31.1534363 136.568136,30.0368143 C136.568136,29.740504 136.553201,29.4590092 136.546913,29.1697168 C137.612762,29.3326875 139.17145,30.0360345 139.17145,32.7566309 C139.17145,34.7988327 137.317217,36.4994979 134.857746,36.7115937 C134.664383,36.7287485 134.498532,36.8574095 134.43565,37.0398743 C134.087441,38.0512281 133.663774,39.0532248 133.175652,40.0193523 C133.053819,40.2602994 133.152072,40.5534906 133.394953,40.6735743 C133.637835,40.7944377 133.932594,40.6969672 134.053642,40.4560201 C134.515039,39.5444761 134.920628,38.6009617 135.262548,37.6473104 C138.073373,37.2722439 140.153981,35.2160064 140.153981,32.7566309 C140.153981,28.9092756 137.408396,28.2815657 136.523332,28.1989107 C136.519402,28.1209343 136.491891,28.049196 136.454948,27.9829161 C135.644556,16.7207854 129.321773,10 119.500393,10 C109.688445,10 103.370378,16.7067497 102.584353,27.9283326 C102.528546,28.0008507 102.488458,28.0858449 102.480598,28.1840952 C101.531866,28.2956014 98.8460193,28.9506031 98.8460193,32.7566309 C98.8460193,35.217566 100.928199,37.2738035 103.740596,37.6473104 C105.395964,42.2525963 108.778229,47.0372278 113.233417,49.4997224 C113.225557,49.5332522 113.212195,49.5652225 113.212195,49.6018714 L113.212195,53.8274122 C113.212195,53.9763472 113.221627,54.1245023 113.229487,54.2718777 C110.277964,54.6500632 107.542598,55.2769934 105.099633,56.1386326 C100.397632,57.7971905 95,60.2955542 95,64.9367092 C95,69.5778642 100.397632,72.0762278 105.099633,73.7347857 C109.300149,75.2163372 114.279616,76 119.500393,76 C124.720384,76 129.700637,75.2163372 133.901153,73.7347857 C138.603154,72.0762278 144,69.5770844 144,64.9367092 C144,60.2955542 138.603154,57.7971905 133.901153,56.1386326" id="Fill-24" fill="#4A4B4E" mask="url(#mask-2)"></path>
                <path d="M120,33.4895042 L120,24.5104958 C120,24.2287021 119.776,24 119.5,24 C119.224,24 119,24.2287021 119,24.5104958 L119,33.4895042 C119,33.7712979 119.224,34 119.5,34 C119.776,34 120,33.7712979 120,33.4895042" id="Fill-25" fill="#4A4B4E" mask="url(#mask-2)"></path>
                <path d="M116.072998,37.2235913 C115.931809,37.445927 116.001628,37.7380745 116.228926,37.8769394 C117.453079,38.6221053 118.722227,39 119.999907,39 C121.278364,39 122.547511,38.6221053 123.770888,37.8769394 C123.998962,37.7380745 124.068005,37.445927 123.926816,37.2235913 C123.784852,37.0012557 123.486959,36.9337203 123.258885,37.0710676 C121.123987,38.372452 118.878155,38.372452 116.740929,37.0710676 C116.513631,36.9337203 116.214963,37.0012557 116.072998,37.2235913" id="Fill-26" fill="#4A4B4E" mask="url(#mask-2)"></path>
                <path d="M99.4568671,24.9992215 C99.7154559,25.0116782 99.9501155,24.8076998 99.9640099,24.5391023 C100.217195,19.7681887 100.850931,14.9381058 103.742493,11.9298143 C107.4901,8.03320487 112.765311,5.97317918 118.999229,5.97317918 C125.23392,5.97317918 130.509902,8.03320487 134.256737,11.9298143 C137.149844,14.9381058 137.782035,19.7681887 138.035992,24.5391023 C138.049115,24.7991358 138.262161,25 138.51689,25 C138.525381,25 138.533872,24.9992215 138.543135,24.9992215 C138.808671,24.9844291 139.013226,24.7555374 138.999332,24.4877185 C138.736112,19.5268403 138.063009,14.4904434 134.949909,11.2524816 C131.016273,7.16201487 125.500999,5 118.999229,5 C112.498231,5 106.982958,7.16201487 103.050093,11.2524816 C99.9369931,14.4904434 99.2638905,19.5268403 99.0006703,24.4877185 C98.986776,24.7555374 99.1905593,24.9844291 99.4568671,24.9992215" id="Fill-27" fill="#4A4B4E" mask="url(#mask-2)"></path>
                <path d="M76.6299318,79.0297385 L73.5760876,72.8309319 C72.8223201,71.3017998 71.2969489,70.352496 69.5932171,70.352496 L20.4067829,70.352496 C18.7038266,70.352496 17.1776799,71.3017998 16.4246879,72.8309319 L13.3708436,79.0297385 L9.85946561,79.0297385 L13.92919,70.7693203 C14.9660081,68.6665696 17.0644597,67.3602096 19.4071878,67.3602096 L70.5928122,67.3602096 C72.9355403,67.3602096 75.0347674,68.6665696 76.07081,70.7693203 L80.1405344,79.0297385 L76.6299318,79.0297385 Z M14.4510887,79.0297385 L17.2940021,73.2601756 C17.8825922,72.0648135 19.075282,71.3227575 20.4067829,71.3227575 L69.5932171,71.3227575 C70.924718,71.3227575 72.1174078,72.0648135 72.7059979,73.2601756 L75.5489113,79.0297385 L14.4510887,79.0297385 Z M38.555365,54.8841993 L41.4835813,54.8841993 L41.4835813,57.732887 C41.4835813,59.6741862 43.0609097,61.2537719 45.0003877,61.2537719 C46.9390903,61.2537719 48.5171941,59.6741862 48.5171941,57.732887 L48.5171941,54.8841993 L51.444635,54.8841993 L51.444635,66.3899481 L38.555365,66.3899481 L38.555365,54.8841993 Z M42.4529326,54.8841993 L47.5478429,54.8841993 L47.5478429,57.732887 C47.5478429,59.1393781 46.4047839,60.2835104 45.0003877,60.2835104 C43.5952161,60.2835104 42.4529326,59.1393781 42.4529326,57.732887 L42.4529326,54.8841993 Z M8.38915361,49.7418134 L8.38915361,5.14238587 C8.38915361,2.84170184 10.2588383,0.970261485 12.5573641,0.970261485 L77.4426359,0.970261485 C79.7411617,0.970261485 81.6108464,2.84170184 81.6108464,5.14238587 L81.6108464,49.7418134 C81.6108464,52.0417212 79.7411617,53.9139378 77.4426359,53.9139378 L12.5573641,53.9139378 C10.2588383,53.9139378 8.38915361,52.0417212 8.38915361,49.7418134 L8.38915361,49.7418134 Z M89.5153244,79.0297385 L81.2215549,79.0297385 L76.9401242,70.3408529 C75.7396796,67.903556 73.3069957,66.3899481 70.5928122,66.3899481 L52.4139862,66.3899481 L52.4139862,54.8841993 L77.4426359,54.8841993 C80.2754681,54.8841993 82.5801977,52.5765294 82.5801977,49.7418134 L82.5801977,5.14238587 C82.5801977,2.30689371 80.2754681,0 77.4426359,0 L12.5573641,0 C9.72453191,0 7.41980234,2.30689371 7.41980234,5.14238587 L7.41980234,49.7418134 C7.41980234,52.5765294 9.72453191,54.8841993 12.5573641,54.8841993 L37.5860138,54.8841993 L37.5860138,66.3899481 L19.4071878,66.3899481 C16.6930043,66.3899481 14.2610958,67.903556 13.0598758,70.3408529 L8.77844507,79.0297385 L0.484675634,79.0297385 C0.217134684,79.0297385 0,79.2470771 0,79.5148693 C0,79.7826614 0.217134684,80 0.484675634,80 L9.08010719,80 L13.6717303,80 L76.3282697,80 L80.9198928,80 L89.5153244,80 C89.7828653,80 90,79.7826614 90,79.5148693 C90,79.2470771 89.7828653,79.0297385 89.5153244,79.0297385 L89.5153244,79.0297385 Z" id="Fill-28" fill="#4A4B4E" mask="url(#mask-2)"></path>
                <path d="M11.9801774,50.0290219 L78.0198226,50.0290219 L78.0198226,4.97097808 L11.9801774,4.97097808 L11.9801774,50.0290219 Z M79,50.514511 L79,4.48548904 C79,4.21749909 78.7812244,4 78.5099113,4 L11.4900887,4 C11.2195597,4 11,4.21749909 11,4.48548904 L11,50.514511 C11,50.7825009 11.2195597,51 11.4900887,51 L78.5099113,51 C78.7812244,51 79,50.7825009 79,50.514511 L79,50.514511 Z" id="Fill-29" fill="#4A4B4E" mask="url(#mask-2)"></path>
                <path d="M44.8860535,33.7702038 L44.8860535,22.2297962 C44.8860535,22.0731391 45.0051391,21.9459971 45.1518696,21.9459971 L46.8481304,21.9459971 C46.994152,21.9459971 47.1139465,22.0731391 47.1139465,22.2297962 L47.1139465,33.7702038 C47.1139465,33.9268609 46.994152,34.0540029 46.8481304,34.0540029 L45.1518696,34.0540029 C45.0051391,34.0540029 44.8860535,33.9268609 44.8860535,33.7702038 L44.8860535,33.7702038 Z M46.8481304,35 C47.4832536,35 48,34.4482945 48,33.7702038 L48,22.2297962 C48,21.5517055 47.4832536,21 46.8481304,21 L45.1518696,21 C44.5167464,21 44,21.5517055 44,22.2297962 L44,33.7702038 C44,34.4482945 44.5167464,35 45.1518696,35 L46.8481304,35 Z" id="Fill-30" fill="#4A4B4E" mask="url(#mask-2)"></path>
                <path d="M51.8860535,27.29606 C51.8860535,27.1309619 52.0051391,26.9969692 52.1518696,26.9969692 L53.8481304,26.9969692 C53.994152,26.9969692 54.1139465,27.1309619 54.1139465,27.29606 L54.1139465,34.70394 C54.1139465,34.8690381 53.994152,35.0030308 53.8481304,35.0030308 L52.1518696,35.0030308 C52.0051391,35.0030308 51.8860535,34.8690381 51.8860535,34.70394 L51.8860535,27.29606 Z M51,34.70394 C51,35.4185676 51.5167464,36 52.1518696,36 L53.8481304,36 C54.4832536,36 55,35.4185676 55,34.70394 L55,27.29606 C55,26.5814324 54.4832536,26 53.8481304,26 L52.1518696,26 C51.5167464,26 51,26.5814324 51,27.29606 L51,34.70394 Z" id="Fill-31" fill="#4A4B4E" mask="url(#mask-2)"></path>
                <path d="M64.8860535,27.29606 C64.8860535,27.1309619 65.0051391,26.9969692 65.1518696,26.9969692 L66.8481304,26.9969692 C66.994152,26.9969692 67.1139465,27.1309619 67.1139465,27.29606 L67.1139465,34.70394 C67.1139465,34.8690381 66.994152,35.0030308 66.8481304,35.0030308 L65.1518696,35.0030308 C65.0051391,35.0030308 64.8860535,34.8690381 64.8860535,34.70394 L64.8860535,27.29606 Z M65.1518696,36 L66.8481304,36 C67.4832536,36 68,35.4185676 68,34.70394 L68,27.29606 C68,26.5814324 67.4832536,26 66.8481304,26 L65.1518696,26 C64.5167464,26 64,26.5814324 64,27.29606 L64,34.70394 C64,35.4185676 64.5167464,36 65.1518696,36 L65.1518696,36 Z" id="Fill-32" fill="#4A4B4E" mask="url(#mask-2)"></path>
                <path d="M57.8860535,18.2904911 C57.8860535,18.1261024 58.0051391,17.9926855 58.1518696,17.9926855 L59.8481304,17.9926855 C59.994152,17.9926855 60.1139465,18.1261024 60.1139465,18.2904911 L60.1139465,34.7095089 C60.1139465,34.8738976 59.994152,35.0073145 59.8481304,35.0073145 L58.1518696,35.0073145 C58.0051391,35.0073145 57.8860535,34.8738976 57.8860535,34.7095089 L57.8860535,18.2904911 Z M58.1518696,36 L59.8481304,36 C60.4832536,36 61,35.4210658 61,34.7095089 L61,18.2904911 C61,17.5789342 60.4832536,17 59.8481304,17 L58.1518696,17 C57.5167464,17 57,17.5789342 57,18.2904911 L57,34.7095089 C57,35.4210658 57.5167464,36 58.1518696,36 L58.1518696,36 Z" id="Fill-33" fill="#4A4B4E" mask="url(#mask-2)"></path>
                <path d="M70.795008,43.0179849 L36.9791261,43.0179849 L36.9791261,18.2122836 C36.9791261,17.5343004 37.5290033,16.9820151 38.204992,16.9820151 C38.8809806,16.9820151 39.4308578,17.5343004 39.4308578,18.2122836 L39.4308578,39.8700373 C39.4308578,40.2494879 39.7394784,40.5590191 40.1178127,40.5590191 L70.795008,40.5590191 C71.4709967,40.5590191 72.0208739,41.1105188 72.0208739,41.788502 C72.0208739,42.4664852 71.4709967,43.0179849 70.795008,43.0179849 M70.795008,39.577004 L40.4099839,39.577004 L40.4099839,18.2122836 C40.4099839,16.9930137 39.4206749,16 38.204992,16 C36.989309,16 36,16.9930137 36,18.2122836 L36,43.113044 C36,43.6024803 36.3963502,44 36.8843467,44 L70.795008,44 C72.010691,44 73,43.0077719 73,41.788502 C73,40.5684465 72.010691,39.577004 70.795008,39.577004" id="Fill-34" fill="#4A4B4E" mask="url(#mask-2)"></path>
                <path d="M36.4718643,11 L50.5281357,11 C50.7886048,11 51,10.776 51,10.5 C51,10.224 50.7886048,10 50.5281357,10 L36.4718643,10 C36.2113952,10 36,10.224 36,10.5 C36,10.776 36.2113952,11 36.4718643,11" id="Fill-35" fill="#4A4B4E" mask="url(#mask-2)"></path>
                <path d="M15.5118755,11 L24.4881245,11 C24.7706798,11 25,10.776 25,10.5 C25,10.224 24.7706798,10 24.4881245,10 L15.5118755,10 C15.2293202,10 15,10.224 15,10.5 C15,10.776 15.2293202,11 15.5118755,11" id="Fill-36" fill="#4A4B4E" mask="url(#mask-2)"></path>
                <path d="M15.4967639,16 L21.5032361,16 C21.7774498,16 22,15.776 22,15.5 C22,15.224 21.7774498,15 21.5032361,15 L15.4967639,15 C15.2225502,15 15,15.224 15,15.5 C15,15.776 15.2225502,16 15.4967639,16" id="Fill-37" fill="#4A4B4E" mask="url(#mask-2)"></path>
                <path d="M15.5118755,20 L24.4881245,20 C24.7706798,20 25,19.776 25,19.5 C25,19.224 24.7706798,19 24.4881245,19 L15.5118755,19 C15.2293202,19 15,19.224 15,19.5 C15,19.776 15.2293202,20 15.5118755,20" id="Fill-38" fill="#4A4B4E" mask="url(#mask-2)"></path>
                <path d="M15.4967639,25 L21.5032361,25 C21.7774498,25 22,24.776 22,24.5 C22,24.224 21.7774498,24 21.5032361,24 L15.4967639,24 C15.2225502,24 15,24.224 15,24.5 C15,24.776 15.2225502,25 15.4967639,25" id="Fill-39" fill="#4A4B4E" mask="url(#mask-2)"></path>
                <path d="M15.5118755,47 L24.4881245,47 C24.7706798,47 25,46.776 25,46.5 C25,46.224 24.7706798,46 24.4881245,46 L15.5118755,46 C15.2293202,46 15,46.224 15,46.5 C15,46.776 15.2293202,47 15.5118755,47" id="Fill-40" fill="#4A4B4E" mask="url(#mask-2)"></path>
                <path d="M66.4878457,10.9179365 L67.6157449,10.9179365 L67.2402988,13.4778777 C67.2036128,13.7290252 67.390165,13.9610795 67.6571142,13.9955939 C67.6797502,13.9985313 67.7023863,14 67.7242417,14 C67.9646521,14 68.1738403,13.8333027 68.2074041,13.6034514 L68.6008029,10.9179365 L70.3991971,10.9179365 L70.7925959,13.6034514 C70.8261597,13.8333027 71.0353479,14 71.2749777,14 C71.2976137,14 71.3202498,13.9985313 71.3428858,13.9955939 C71.609835,13.9610795 71.7963872,13.7290252 71.7589206,13.4778777 L71.3834746,10.9179365 L72.5121543,10.9179365 C72.7814451,10.9179365 73,10.7123187 73,10.4589682 C73,10.2056178 72.7814451,10 72.5121543,10 L66.4878457,10 C66.2185549,10 66,10.2056178 66,10.4589682 C66,10.7123187 66.2185549,10.9179365 66.4878457,10.9179365" id="Fill-41" fill="#4A4B4E" mask="url(#mask-2)"></path>
            </g>
        </g>
    </g>
</svg>