<svg xmlns="http://www.w3.org/2000/svg" viewBox="0 0 37.94727 38.97498">
  <defs>
    <style>
      .artwork {
        fill: #dbae55;
      }
    </style>
  </defs>
  <path class="artwork" d="M21.8819,35.49194H4.15668a3.01263,3.01263,0,0,1-2.99134-3.02716V11.64539h32.785V24.22223a.58271.58271,0,1,0,1.16534,0V7.82324a4.17907,4.17907,0,0,0-3.92743-4.18377V2.544a2.00656,2.00656,0,1,0-4.01281,0V3.616H25.76337V2.544a2.00656,2.00656,0,1,0-4.01282,0V3.616H13.3653V2.544a2.00653,2.00653,0,1,0-4.01276,0V3.616H7.94043V2.544a2.00656,2.00656,0,1,0-4.01282,0V3.63947A4.17922,4.17922,0,0,0,0,7.82324V32.46478a4.18663,4.18663,0,0,0,4.15668,4.20667H21.8819a.5898.5898,0,0,0,0-1.17951ZM28.34027,2.544a.84137.84137,0,1,1,1.68262,0V5.97992a.84137.84137,0,1,1-1.68262,0ZM23.757,1.6922A.84719.84719,0,0,1,24.598,2.544V5.97992a.8414.8414,0,1,1-1.68268,0v-1.773l.00025-.00122-.00025-.00122V2.544A.84767.84767,0,0,1,23.757,1.6922ZM10.51733,2.544a.84137.84137,0,1,1,1.68262,0V5.97992a.84137.84137,0,1,1-1.68262,0Zm-5.42486,0a.84137.84137,0,1,1,1.68262,0V5.97992a.84137.84137,0,1,1-1.68262,0ZM3.92761,4.819V5.97992a2.00656,2.00656,0,1,0,4.01282,0V4.79541H9.35254V5.97992a2.00653,2.00653,0,1,0,4.01276,0V4.79541h8.38525V5.97992a2.00656,2.00656,0,1,0,4.01282,0V4.79541h1.41205V5.97992a2.00656,2.00656,0,1,0,4.01281,0v-1.161a3.00664,3.00664,0,0,1,2.76209,3.00433v2.64264H1.16534V7.82324A3.00674,3.00674,0,0,1,3.92761,4.819ZM12.14075,16.4928a1.09725,1.09725,0,0,0-1.08936-1.10254H6.27509A1.0976,1.0976,0,0,0,5.18573,16.4928v4.83386a1.0973,1.0973,0,0,0,1.08936,1.1026h4.7763a1.097,1.097,0,0,0,1.08936-1.1026ZM10.9754,21.25024H6.35107v-4.68H10.9754ZM21.22528,16.4928a1.09724,1.09724,0,0,0-1.08935-1.10254H15.36011a1.09729,1.09729,0,0,0-1.08936,1.10254v4.83386a1.097,1.097,0,0,0,1.08936,1.1026h4.77582a1.09694,1.09694,0,0,0,1.08935-1.1026Zm-1.16534,4.75744H15.4361v-4.68h4.62384Zm9.98388.07642V16.4928a1.09728,1.09728,0,0,0-1.08935-1.10254H24.17865a1.0976,1.0976,0,0,0-1.08936,1.10254v4.83386a1.0973,1.0973,0,0,0,1.08936,1.1026h4.77582A1.097,1.097,0,0,0,30.04382,21.32666Zm-1.16534-.07642H24.25464v-4.68h4.62384ZM11.05139,24.60309H6.27509a1.09724,1.09724,0,0,0-1.08936,1.10254v4.83386A1.0976,1.0976,0,0,0,6.27509,31.642h4.7763a1.09725,1.09725,0,0,0,1.08936-1.10254V25.70563A1.0969,1.0969,0,0,0,11.05139,24.60309Zm-.076,5.8595H6.35107v-4.68H10.9754Zm9.16053-5.8595H15.36011a1.09693,1.09693,0,0,0-1.08936,1.10254v4.83386A1.09729,1.09729,0,0,0,15.36011,31.642h4.77582a1.09724,1.09724,0,0,0,1.08935-1.10254V25.70563A1.09689,1.09689,0,0,0,20.13593,24.60309Zm-.076,5.8595H15.4361v-4.68h4.62384Zm17.30462-2.08686h-1.851a6.53078,6.53078,0,0,1,1.95264,4.64478,6.39006,6.39006,0,1,1-6.38959-6.46717.5898.5898,0,0,1,0,1.17951,5.28808,5.28808,0,1,0,5.22424,5.28766,5.34193,5.34193,0,0,0-1.64288-3.8468v1.942a.58272.58272,0,1,1-1.16535,0V28.16034a.959.959,0,0,1,.952-.96356h2.91992a.58951.58951,0,0,1,0,1.179Z" transform="translate(0 -0.5127)"/>
</svg>
