<?xml version="1.0" encoding="UTF-8"?>
<svg width="22px" height="18px" viewBox="0 0 22 18" version="1.1" xmlns="http://www.w3.org/2000/svg" xmlns:xlink="http://www.w3.org/1999/xlink">
    <!-- Generator: Sketch 49 (51002) - http://www.bohemiancoding.com/sketch -->
    <title>Page 1 Copy 2</title>
    <desc>Created with Sketch.</desc>
    <defs>
        <polygon id="path-1" points="0 0 22 0 22 18 0 18"></polygon>
    </defs>
    <g id="Home" stroke="none" stroke-width="1" fill="none" fill-rule="evenodd">
        <g id="Footer-B---Mobile-" transform="translate(-243.000000, -689.000000)">
            <g id="Page-1-Copy-2" transform="translate(243.000000, 689.000000)">
                <mask id="mask-2" fill="white">
                    <use xlink:href="#path-1"></use>
                </mask>
                <g id="Clip-2"></g>
                <path d="M18.2618333,11.0769231 C17.2296667,13.1243077 15.7831667,14.7544615 13.9205,15.9655385 C11.8873333,17.3224615 9.5535,18 6.91716667,18 C4.39633333,18 2.09,17.3224615 0,15.9655385 C0.315333333,15.9950769 0.672833333,16.0098462 1.07433333,16.0098462 C3.16433333,16.0098462 5.04166667,15.36 6.70266667,14.0621538 C5.69983333,14.0621538 4.81983333,13.7667692 4.06083333,13.176 C3.30183333,12.5833846 2.7775,11.8412308 2.4915,10.9476923 C2.7775,10.9753846 3.05066667,10.9901538 3.30733333,10.9901538 C3.70883333,10.9901538 4.11033333,10.9476923 4.51183333,10.8609231 C3.47966667,10.6301538 2.61983333,10.0966154 1.93233333,9.25846154 C1.24483333,8.42215385 0.902,7.47138462 0.902,6.40430769 L0.902,6.31753846 C1.53266667,6.69230769 2.2055,6.89353846 2.9205,6.92307692 C2.31916667,6.48923077 1.83333333,5.94276923 1.46116667,5.27815385 C1.08716667,4.61538462 0.902,3.88615385 0.902,3.09415385 C0.902,2.30030769 1.1165,1.54338462 1.5455,0.821538462 C2.66383333,2.23569231 4.0315,3.36 5.65033333,4.19630769 C7.26916667,5.03261538 8.99433333,5.49415385 10.8276667,5.58092308 C10.7708333,5.23569231 10.7415,4.88861538 10.7415,4.54338462 C10.7415,3.73476923 10.9431667,2.97784615 11.3428333,2.27076923 C11.7443333,1.56369231 12.2888333,1.00984615 12.9763333,0.605538462 C13.6638333,0.201230769 14.4081667,0 15.2111667,0 C15.8693333,0 16.478,0.129230769 17.0371667,0.389538462 C17.5945,0.648 18.0895,0.995076923 18.5185,1.42707692 C19.5506667,1.22584615 20.5095,0.865846154 21.3986667,0.345230769 C21.054,1.41230769 20.3958333,2.25046154 19.4223333,2.856 C20.2803333,2.73969231 21.1401667,2.49415385 22,2.11938462 C21.3693333,3.04246154 20.6103333,3.83630769 19.723,4.49907692 C19.7505,4.61538462 19.7651667,4.80184615 19.7651667,5.06215385 C19.7651667,7.13907692 19.2646667,9.144 18.2618333,11.0769231 Z" id="Fill-1" fill="#666667" mask="url(#mask-2)"></path>
            </g>
        </g>
    </g>
</svg>