<?xml version="1.0" encoding="UTF-8"?>
<svg width="112px" height="83px" viewBox="0 0 112 83" version="1.1" xmlns="http://www.w3.org/2000/svg" xmlns:xlink="http://www.w3.org/1999/xlink">
    <!-- Generator: Sketch 54.1 (76490) - https://sketchapp.com -->
    <title>Group 108</title>
    <desc>Created with Sketch.</desc>
    <defs>
        <polygon id="path-1" points="0.753502703 0.451972727 63.6452865 0.451972727 63.6452865 83 0.753502703 83"></polygon>
        <polygon id="path-3" points="0.105794595 0.116049091 27.331027 0.116049091 27.331027 36.1818127 0.105794595 36.1818127"></polygon>
        <polygon id="path-5" points="0 0.338736397 27.2262919 0.338736397 27.2262919 53.7736627 0 53.7736627"></polygon>
    </defs>
    <g id="Page-1" stroke="none" stroke-width="1" fill="none" fill-rule="evenodd">
        <g id="Desktop---HD-Display-Copy-4" transform="translate(-663.000000, -714.000000)">
            <g id="Group-108" transform="translate(663.000000, 714.000000)">
                <polyline id="Fill-1" fill="#FCD470" points="76.4536223 58 97 58 97 48 94.3099142 48.9624549 91.6914134 48.0223827 89.0751731 48.9624549 86.4611934 48.0223827 83.8457067 48.9624549 81.23022 48.0223827 78.6154867 48.9624549 76 48.0223827 76 56.4960289"></polyline>
                <g id="Group-107">
                    <path d="M85.2955676,73.6664236 L75.9723243,73.6664236 C75.5545946,73.6664236 75.2155676,74.00446 75.2155676,74.4209691 L75.2155676,75.5324145 C75.2155676,75.9489236 75.5545946,76.28696 75.9723243,76.28696 L85.2955676,76.28696 C85.7132973,76.28696 86.0523243,75.9489236 86.0523243,75.5324145 L86.0523243,74.4209691 C86.0523243,74.00446 85.7132973,73.6664236 85.2955676,73.6664236" id="Fill-2" fill="#FCD470"></path>
                    <path d="M92.1995351,73.6664236 L90.2735892,73.6664236 C89.8558595,73.6664236 89.5168324,74.00446 89.5168324,74.4209691 L89.5168324,75.5324145 C89.5168324,75.9489236 89.8558595,76.28696 90.2735892,76.28696 L92.1995351,76.28696 C92.6172649,76.28696 92.9562919,75.9489236 92.9562919,75.5324145 L92.9562919,74.4209691 C92.9562919,74.00446 92.6172649,73.6664236 92.1995351,73.6664236" id="Fill-4" fill="#FCD470"></path>
                    <path d="M92.7969946,62.2251755 L89.5172108,62.2251755 C89.255373,62.2251755 89.0442378,62.4364482 89.0442378,62.6967664 C89.0442378,62.9570845 89.255373,63.1683573 89.5172108,63.1683573 L92.7969946,63.1683573 C93.0580757,63.1683573 93.2699676,62.9570845 93.2699676,62.6967664 C93.2699676,62.4364482 93.0580757,62.2251755 92.7969946,62.2251755" id="Fill-6" fill="#FCD470"></path>
                    <path d="M92.7969946,69.1089691 L89.5172108,69.1089691 C89.255373,69.1089691 89.0442378,69.3202418 89.0442378,69.58056 C89.0442378,69.8408782 89.255373,70.0521509 89.5172108,70.0521509 L92.7969946,70.0521509 C93.0580757,70.0521509 93.2699676,69.8408782 93.2699676,69.58056 C93.2699676,69.3202418 93.0580757,69.1089691 92.7969946,69.1089691" id="Fill-8" fill="#FCD470"></path>
                    <polygon id="Fill-10" fill="#FCD470" points="108.212962 3.07960182 105.583232 2.09718364 102.955773 3.07960182 100.329827 2.09718364 97.7031243 3.07960182 95.0771784 2.09718364 92.4512324 3.07960182 89.8252865 2.09718364 87.2000973 3.07960182 84.7444216 2.16358364 84.7444216 12.5242473 110.914584 12.5242473 110.914584 2.07379273"></polygon>
                    <path d="M98.9279351,28.3576291 L89.6046919,28.3576291 C89.1869622,28.3576291 88.8479351,28.6956655 88.8479351,29.1121745 L88.8479351,30.22362 C88.8479351,30.6401291 89.1869622,30.9781655 89.6046919,30.9781655 L98.9279351,30.9781655 C99.3456649,30.9781655 99.6846919,30.6401291 99.6846919,30.22362 L99.6846919,29.1121745 C99.6846919,28.6956655 99.3456649,28.3576291 98.9279351,28.3576291" id="Fill-12" fill="#FCD470"></path>
                    <path d="M105.831827,28.3576291 L103.905881,28.3576291 C103.488151,28.3576291 103.149124,28.6956655 103.149124,29.1121745 L103.149124,30.22362 C103.149124,30.6401291 103.488151,30.9781655 103.905881,30.9781655 L105.831827,30.9781655 C106.249557,30.9781655 106.588584,30.6401291 106.588584,30.22362 L106.588584,29.1121745 C106.588584,28.6956655 106.249557,28.3576291 105.831827,28.3576291" id="Fill-14" fill="#FCD470"></path>
                    <path d="M106.429741,16.9163809 L103.1492,16.9163809 C102.888119,16.9163809 102.676227,17.1276536 102.676227,17.3879718 C102.676227,17.64829 102.888119,17.8595627 103.1492,17.8595627 L106.429741,17.8595627 C106.690822,17.8595627 106.902714,17.64829 106.902714,17.3879718 C106.902714,17.1276536 106.690822,16.9163809 106.429741,16.9163809" id="Fill-16" fill="#FCD470"></path>
                    <path d="M106.429741,23.8000991 L103.1492,23.8000991 C102.888119,23.8000991 102.676227,24.0113718 102.676227,24.27169 C102.676227,24.5320082 102.888119,24.7432809 103.1492,24.7432809 L106.429741,24.7432809 C106.690822,24.7432809 106.902714,24.5320082 106.902714,24.27169 C106.902714,24.0113718 106.690822,23.8000991 106.429741,23.8000991" id="Fill-18" fill="#FCD470"></path>
                    <path d="M44.015773,19.9437682 C43.511773,19.9437682 43.1031243,20.3512227 43.1031243,20.85375 L43.1031243,32.3605682 C43.1031243,39.23825 48.3928541,45.16445 55.2823676,45.50475 C62.6463676,45.8669318 68.7549081,39.9965682 68.7549081,32.7318045 L68.7549081,20.85375 C68.7549081,20.3512227 68.3462595,19.9437682 67.8422595,19.9437682 L44.015773,19.9437682 Z" id="Fill-20" fill="#FCD470"></path>
                    <polygon id="Fill-22" fill="#FCD470" points="21.4778919 10.6202273 18.8504324 11.6026455 16.2252432 10.6202273 13.5977838 11.6026455 10.9718378 10.6202273 8.34513514 11.6026455 5.71918919 10.6202273 3.09475676 11.6026455 0.639081081 10.6866273 0.639081081 21.0472909 26.8092432 21.0472909 26.8092432 10.5975909 24.1076216 11.6026455"></polygon>
                    <path d="M14.8222162,54.2494036 L5.49972973,54.2494036 C5.08124324,54.2494036 4.74297297,54.58744 4.74297297,55.0039491 L4.74297297,56.1153945 C4.74297297,56.5319036 5.08124324,56.86994 5.49972973,56.86994 L14.8222162,56.86994 C15.2407027,56.86994 15.578973,56.5319036 15.578973,56.1153945 L15.578973,55.0039491 C15.578973,54.58744 15.2407027,54.2494036 14.8222162,54.2494036" id="Fill-24" fill="#FCD470"></path>
                    <path d="M21.7265622,54.2494036 L19.8006162,54.2494036 C19.3828865,54.2494036 19.0438595,54.58744 19.0438595,55.0039491 L19.0438595,56.1153945 C19.0438595,56.5319036 19.3828865,56.86994 19.8006162,56.86994 L21.7265622,56.86994 C22.1442919,56.86994 22.4833189,56.5319036 22.4833189,56.1153945 L22.4833189,55.0039491 C22.4833189,54.58744 22.1442919,54.2494036 21.7265622,54.2494036" id="Fill-26" fill="#FCD470"></path>
                    <path d="M22.3240216,25.4396509 L19.0442378,25.4396509 C18.7824,25.4396509 18.5712649,25.6509236 18.5712649,25.9112418 C18.5712649,26.17156 18.7824,26.3828327 19.0442378,26.3828327 L22.3240216,26.3828327 C22.5851027,26.3828327 22.7969946,26.17156 22.7969946,25.9112418 C22.7969946,25.6509236 22.5851027,25.4396509 22.3240216,25.4396509" id="Fill-28" fill="#FCD470"></path>
                    <path d="M22.3240216,32.2622509 L19.0442378,32.2622509 C18.7824,32.2622509 18.5712649,32.4735236 18.5712649,32.7338418 C18.5712649,32.99416 18.7824,33.2054327 19.0442378,33.2054327 L22.3240216,33.2054327 C22.5851027,33.2054327 22.7969946,32.99416 22.7969946,32.7338418 C22.7969946,32.4735236 22.5851027,32.2622509 22.3240216,32.2622509" id="Fill-30" fill="#FCD470"></path>
                    <path d="M22.3240216,39.0848509 L19.0442378,39.0848509 C18.7824,39.0848509 18.5712649,39.2961236 18.5712649,39.5564418 C18.5712649,39.81676 18.7824,40.0280327 19.0442378,40.0280327 L22.3240216,40.0280327 C22.5851027,40.0280327 22.7969946,39.81676 22.7969946,39.5564418 C22.7969946,39.2961236 22.5851027,39.0848509 22.3240216,39.0848509" id="Fill-32" fill="#FCD470"></path>
                    <path d="M22.3240216,45.8812682 L19.0442378,45.8812682 C18.7824,45.8812682 18.5712649,46.0925409 18.5712649,46.3528591 C18.5712649,46.6131773 18.7824,46.82445 19.0442378,46.82445 L22.3240216,46.82445 C22.5851027,46.82445 22.7969946,46.6131773 22.7969946,46.3528591 C22.7969946,46.0925409 22.5851027,45.8812682 22.3240216,45.8812682" id="Fill-34" fill="#FCD470"></path>
                    <path d="M85.5793514,75.5321882 C85.5793514,75.6883791 85.4522162,75.8151427 85.2955676,75.8151427 L75.9723243,75.8151427 C75.8164324,75.8151427 75.6885405,75.6883791 75.6885405,75.5321882 L75.6885405,74.4207427 C75.6885405,74.2645518 75.8164324,74.1377882 75.9723243,74.1377882 L85.2955676,74.1377882 C85.4522162,74.1377882 85.5793514,74.2645518 85.5793514,74.4207427 L85.5793514,75.5321882 Z M85.2955676,73.1946064 L75.9723243,73.1946064 C75.2942703,73.1946064 74.7425946,73.74467 74.7425946,74.4207427 L74.7425946,75.5321882 C74.7425946,76.2082609 75.2942703,76.7583245 75.9723243,76.7583245 L85.2955676,76.7583245 C85.9736216,76.7583245 86.5252973,76.2082609 86.5252973,75.5321882 L86.5252973,74.4207427 C86.5252973,73.74467 85.9736216,73.1946064 85.2955676,73.1946064 L85.2955676,73.1946064 Z" id="Fill-36" fill="#4A4B4E"></path>
                    <path d="M92.4833189,75.5321882 C92.4833189,75.6883791 92.3561838,75.8151427 92.1995351,75.8151427 L90.2735892,75.8151427 C90.1176973,75.8151427 89.9898054,75.6883791 89.9898054,75.5321882 L89.9898054,74.4207427 C89.9898054,74.2645518 90.1176973,74.1377882 90.2735892,74.1377882 L92.1995351,74.1377882 C92.3561838,74.1377882 92.4833189,74.2645518 92.4833189,74.4207427 L92.4833189,75.5321882 Z M92.1995351,73.1946064 L90.2735892,73.1946064 C89.5955351,73.1946064 89.0438595,73.74467 89.0438595,74.4207427 L89.0438595,75.5321882 C89.0438595,76.2082609 89.5955351,76.7583245 90.2735892,76.7583245 L92.1995351,76.7583245 C92.8775892,76.7583245 93.4292649,76.2082609 93.4292649,75.5321882 L93.4292649,74.4207427 C93.4292649,73.74467 92.8775892,73.1946064 92.1995351,73.1946064 L92.1995351,73.1946064 Z" id="Fill-38" fill="#4A4B4E"></path>
                    <path d="M89.0439351,66.1387009 C89.0439351,66.3990191 89.255827,66.6102918 89.5169081,66.6102918 L92.7966919,66.6102918 C93.0585297,66.6102918 93.2696649,66.3990191 93.2696649,66.1387009 C93.2696649,65.8783827 93.0585297,65.66711 92.7966919,65.66711 L89.5169081,65.66711 C89.255827,65.66711 89.0439351,65.8783827 89.0439351,66.1387009" id="Fill-40" fill="#4A4B4E"></path>
                    <path d="M75.2157189,70.0521509 L81.947827,70.0521509 C82.2089081,70.0521509 82.4208,69.8408782 82.4208,69.58056 C82.4208,69.3202418 82.2089081,69.1089691 81.947827,69.1089691 L75.2157189,69.1089691 C74.9546378,69.1089691 74.7427459,69.3202418 74.7427459,69.58056 C74.7427459,69.8408782 74.9546378,70.0521509 75.2157189,70.0521509" id="Fill-42" fill="#4A4B4E"></path>
                    <g id="Group-46" transform="translate(34.054054, 0.000000)">
                        <mask id="mask-2" fill="white">
                            <use xlink:href="#path-1"></use>
                        </mask>
                        <g id="Clip-45"></g>
                        <path d="M60.3662595,81.10428 L57.9075568,82.0240709 L55.4473405,81.10428 C55.3406378,81.0642891 55.2225838,81.0642891 55.1151243,81.10428 L52.6549081,82.0240709 L50.1954486,81.10428 C50.0879892,81.0642891 49.9691784,81.0642891 49.8632324,81.10428 L47.4022595,82.0240709 L44.9428,81.10428 C44.8360973,81.0642891 44.7180432,81.0642891 44.6105838,81.10428 L42.1488541,82.0248255 L39.6848541,81.10428 C39.5781514,81.0642891 39.4608541,81.0642891 39.3533946,81.10428 L37.3646378,81.8467527 L37.3646378,68.67918 C39.0718811,68.6195709 40.5944757,67.8303164 41.6244216,66.6102164 L51.3457189,66.6102164 C51.6068,66.6102164 51.8186919,66.3989436 51.8186919,66.1386255 C51.8186919,65.8783073 51.6068,65.6670345 51.3457189,65.6670345 L42.2752324,65.6670345 C42.6884216,64.9185255 42.9351243,64.0696618 42.9820432,63.16798 L47.8941514,63.16798 C48.1552324,63.16798 48.3671243,62.9574618 48.3671243,62.6963891 C48.3671243,62.4360709 48.1552324,62.2247982 47.8941514,62.2247982 L42.9971784,62.2247982 L42.9971784,48.2309982 L44.5984757,48.8301073 C44.7051784,48.8700982 44.8232324,48.8700982 44.9306919,48.8301073 L47.3909081,47.9095618 L49.8503676,48.8301073 C49.957827,48.8700982 50.0758811,48.8700982 50.1833405,48.8301073 L52.6435568,47.9095618 L55.1030162,48.8301073 C55.2104757,48.8700982 55.3285297,48.8700982 55.4352324,48.8301073 L57.8969622,47.9095618 L60.3609622,48.8301073 C60.4139351,48.8497255 60.4706919,48.8602891 60.5266919,48.8602891 C60.5826919,48.8602891 60.6386919,48.8497255 60.6924216,48.8301073 L62.6993405,48.0800891 L62.6993405,81.8527891 L60.6984757,81.10428 C60.591773,81.0642891 60.4737189,81.0642891 60.3662595,81.10428 M1.69944865,62.8684255 L1.69944865,6.27374364 C1.69944865,3.58378909 3.89404324,1.39485273 6.59188108,1.39485273 L37.1588,1.39485273 C39.8558811,1.39485273 42.0512324,3.58378909 42.0512324,6.27374364 L42.0512324,62.8684255 C42.0512324,65.5576255 39.8558811,67.7465618 37.1588,67.7465618 L6.59188108,67.7465618 C3.89404324,67.7465618 1.69944865,65.5576255 1.69944865,62.8684255 M63.5991243,47.24028 C63.5075568,46.9965618 63.2351243,46.8735709 62.9899351,46.9641164 L60.5266919,47.8846618 L58.0634486,46.9641164 C57.9559892,46.9241255 57.8379351,46.9241255 57.7312324,46.9641164 L55.2695027,47.8846618 L52.8100432,46.9641164 C52.7033405,46.9241255 52.5845297,46.9241255 52.477827,46.9641164 L50.0168541,47.8846618 L47.5573946,46.9641164 C47.4499351,46.9241255 47.3318811,46.9241255 47.2244216,46.9641164 L44.7642054,47.8846618 L42.9971784,47.22368 L42.9971784,6.27374364 C42.9971784,3.06315273 40.3780432,0.451670909 37.1588,0.451670909 L6.59188108,0.451670909 C3.37263784,0.451670909 0.753502703,3.06315273 0.753502703,6.27374364 L0.753502703,62.8684255 C0.753502703,66.0782618 3.37263784,68.6897436 6.59188108,68.6897436 L36.4186919,68.6897436 L36.4186919,82.4020982 C36.4186919,82.4209618 36.427773,82.4368073 36.4300432,82.4556709 C36.4171784,82.5333891 36.4171784,82.6141255 36.4466919,82.6933527 C36.5390162,82.9378255 36.8122054,83.0623255 37.0558811,82.9695164 L39.5191243,82.0489709 L41.9831243,82.9695164 C42.089827,83.0087527 42.2071243,83.0087527 42.3145838,82.9695164 L44.7763135,82.0497255 L47.235773,82.9695164 C47.3432324,83.0087527 47.4612865,83.0087527 47.5679892,82.9695164 L50.0289622,82.0497255 L52.4884216,82.9695164 C52.5958811,83.0087527 52.7139351,83.0087527 52.8213946,82.9695164 L55.2816108,82.0497255 L57.7410703,82.9695164 C57.8485297,83.0087527 57.9665838,83.0087527 58.0740432,82.9695164 L60.5327459,82.0497255 L62.9899351,82.9695164 C63.0444216,82.9898891 63.1004216,82.9996982 63.1564216,82.9996982 C63.3471243,82.9996982 63.5272324,82.8827436 63.5983676,82.6933527 C63.6233405,82.6284618 63.6301514,82.5613073 63.6256108,82.4964164 C63.6324216,82.4647255 63.6452865,82.4352982 63.6452865,82.4020982 L63.6452865,47.5715255 C63.6452865,47.5300255 63.6309081,47.4938073 63.6210703,47.45608 C63.6293946,47.3851527 63.6263676,47.3119618 63.5991243,47.24028" id="Fill-44" fill="#4A4B4E" mask="url(#mask-2)"></path>
                    </g>
                    <path d="M90.5252865,53.2723427 C90.5252865,53.0120245 90.3133946,52.8007518 90.0523135,52.8007518 L79.631773,52.8007518 C79.3706919,52.8007518 79.1588,53.0120245 79.1588,53.2723427 C79.1588,53.5326609 79.3706919,53.7439336 79.631773,53.7439336 L90.0523135,53.7439336 C90.3133946,53.7439336 90.5252865,53.5326609 90.5252865,53.2723427" id="Fill-47" fill="#4A4B4E"></path>
                    <g id="Group-51" transform="translate(84.000000, 1.509091)">
                        <mask id="mask-4" fill="white">
                            <use xlink:href="#path-3"></use>
                        </mask>
                        <g id="Clip-50"></g>
                        <path d="M24.0526054,34.2860173 L21.5939027,35.2065627 L19.1336865,34.2860173 C19.0269838,34.2452718 18.9089297,34.2452718 18.8014703,34.2860173 L16.3420108,35.2065627 L13.8817946,34.2860173 C13.7743351,34.2452718 13.6562811,34.2452718 13.5495784,34.2860173 L11.0886054,35.2065627 L8.62914595,34.2860173 C8.52244324,34.2452718 8.40363243,34.2452718 8.29692973,34.2860173 L5.8352,35.2065627 L3.37195676,34.2860173 C3.2644973,34.2460264 3.1472,34.2460264 3.03974054,34.2860173 L1.05174054,35.02849 L1.05174054,1.26937182 L3.03368649,2.01184455 C3.14114595,2.05259 3.2592,2.05259 3.36665946,2.01184455 L5.82536216,1.09129909 L8.28482162,2.01184455 C8.33855135,2.03221727 8.39530811,2.04202636 8.45130811,2.04202636 C8.50730811,2.04202636 8.56406486,2.03221727 8.61779459,2.01184455 L11.0772541,1.09129909 L13.5367135,2.01184455 C13.644173,2.05259 13.762227,2.05259 13.8696865,2.01184455 L16.3299027,1.09129909 L18.7893622,2.01184455 C18.8968216,2.05259 19.0148757,2.05259 19.1223351,2.01184455 L21.5833081,1.09129909 L24.0473081,2.01259909 C24.1540108,2.05183545 24.2720649,2.05183545 24.3787676,2.01259909 L26.3856865,1.26258091 L26.3856865,35.0352809 L24.3848216,34.2860173 C24.2781189,34.2452718 24.1600649,34.2452718 24.0526054,34.2860173 L24.0526054,34.2860173 Z M27.3316324,0.753262727 C27.3316324,0.712517273 27.3172541,0.676299091 27.308173,0.638571818 C27.3157405,0.56689 27.3127135,0.494453636 27.2854703,0.422771818 C27.1939027,0.179053636 26.922227,0.0553081818 26.6770378,0.145853636 L24.2130378,1.06715364 L21.7497946,0.145853636 C21.6423351,0.106617273 21.5242811,0.105862727 21.4175784,0.146608182 L18.9558486,1.06715364 L16.4963892,0.146608182 C16.3896865,0.105862727 16.2708757,0.105862727 16.164173,0.146608182 L13.7032,1.06715364 L11.2437405,0.146608182 C11.1362811,0.105862727 11.018227,0.105862727 10.9107676,0.146608182 L8.45130811,1.06715364 L5.99109189,0.146608182 C5.88438919,0.105862727 5.76557838,0.105862727 5.65887568,0.146608182 L3.20017297,1.06715364 L0.742227027,0.146608182 C0.499308108,0.0553081818 0.225362162,0.177544545 0.133794595,0.422017273 C0.101254054,0.508035455 0.103524324,0.595562727 0.12092973,0.679317273 C0.116389189,0.704217273 0.105794595,0.726853636 0.105794595,0.753262727 L0.105794595,35.5838355 C0.105794595,35.6019445 0.114118919,35.61779 0.116389189,35.6358991 C0.103524324,35.7151264 0.103524324,35.7951082 0.133037838,35.87509 C0.225362162,36.1188082 0.497794595,36.2425536 0.742227027,36.1520082 L3.20622703,35.2307082 L5.66947027,36.1520082 C5.77692973,36.1912445 5.89422703,36.1919991 6.00168649,36.1512536 L8.46265946,35.2307082 L10.9221189,36.1512536 C11.0295784,36.1919991 11.1476324,36.1919991 11.2550919,36.1512536 L13.7153081,35.2307082 L16.1755243,36.1512536 C16.282227,36.1919991 16.4010378,36.1919991 16.5077405,36.1512536 L18.9679568,35.2307082 L21.4274162,36.1512536 C21.5348757,36.1919991 21.6529297,36.1919991 21.7603892,36.1512536 L24.2190919,35.2307082 L26.6762811,36.1512536 C26.7315243,36.1723809 26.7875243,36.1814355 26.8427676,36.1814355 C27.034227,36.1814355 27.2143351,36.0652355 27.2854703,35.8758445 C27.3104432,35.8101991 27.3164973,35.7430445 27.3119568,35.6773991 C27.3187676,35.6457082 27.3316324,35.6170355 27.3316324,35.5838355 L27.3316324,0.753262727 Z" id="Fill-49" fill="#4A4B4E" mask="url(#mask-4)"></path>
                    </g>
                    <path d="M99.2117189,30.2233182 C99.2117189,30.3795091 99.0845838,30.5062727 98.9279351,30.5062727 L89.6054486,30.5062727 C89.4488,30.5062727 89.3216649,30.3795091 89.3216649,30.2233182 L89.3216649,29.1118727 C89.3216649,28.9564364 89.4488,28.8289182 89.6054486,28.8289182 L98.9279351,28.8289182 C99.0845838,28.8289182 99.2117189,28.9564364 99.2117189,29.1118727 L99.2117189,30.2233182 Z M98.9279351,27.8857364 L89.6054486,27.8857364 C88.9273946,27.8857364 88.3757189,28.4358 88.3757189,29.1118727 L88.3757189,30.2233182 C88.3757189,30.8993909 88.9273946,31.4494545 89.6054486,31.4494545 L98.9279351,31.4494545 C99.6059892,31.4494545 100.157665,30.8993909 100.157665,30.2233182 L100.157665,29.1118727 C100.157665,28.4358 99.6059892,27.8857364 98.9279351,27.8857364 L98.9279351,27.8857364 Z" id="Fill-52" fill="#4A4B4E"></path>
                    <path d="M106.115611,30.2233182 C106.115611,30.3795091 105.988476,30.5062727 105.831827,30.5062727 L103.905881,30.5062727 C103.749989,30.5062727 103.622097,30.3795091 103.622097,30.2233182 L103.622097,29.1118727 C103.622097,28.9564364 103.749989,28.8289182 103.905881,28.8289182 L105.831827,28.8289182 C105.988476,28.8289182 106.115611,28.9564364 106.115611,29.1118727 L106.115611,30.2233182 Z M105.831827,27.8857364 L103.905881,27.8857364 C103.227827,27.8857364 102.676151,28.4358 102.676151,29.1118727 L102.676151,30.2233182 C102.676151,30.8993909 103.227827,31.4494545 103.905881,31.4494545 L105.831827,31.4494545 C106.509881,31.4494545 107.061557,30.8993909 107.061557,30.2233182 L107.061557,29.1118727 C107.061557,28.4358 106.509881,27.8857364 105.831827,27.8857364 L105.831827,27.8857364 Z" id="Fill-54" fill="#4A4B4E"></path>
                    <path d="M88.8484649,17.8595627 L95.580573,17.8595627 C95.8416541,17.8595627 96.0535459,17.64829 96.0535459,17.3879718 C96.0535459,17.1276536 95.8416541,16.9163809 95.580573,16.9163809 L88.8484649,16.9163809 C88.5873838,16.9163809 88.3754919,17.1276536 88.3754919,17.3879718 C88.3754919,17.64829 88.5873838,17.8595627 88.8484649,17.8595627" id="Fill-56" fill="#4A4B4E"></path>
                    <path d="M88.8484649,21.3014218 L99.0328973,21.3014218 C99.2939784,21.3014218 99.5058703,21.0901491 99.5058703,20.8298309 C99.5058703,20.5695127 99.2939784,20.35824 99.0328973,20.35824 L88.8484649,20.35824 C88.5873838,20.35824 88.3754919,20.5695127 88.3754919,20.8298309 C88.3754919,21.0901491 88.5873838,21.3014218 88.8484649,21.3014218" id="Fill-58" fill="#4A4B4E"></path>
                    <path d="M102.676227,20.8298309 C102.676227,21.0901491 102.888119,21.3014218 103.1492,21.3014218 L106.429741,21.3014218 C106.690822,21.3014218 106.902714,21.0901491 106.902714,20.8298309 C106.902714,20.5695127 106.690822,20.35824 106.429741,20.35824 L103.1492,20.35824 C102.888119,20.35824 102.676227,20.5695127 102.676227,20.8298309" id="Fill-60" fill="#4A4B4E"></path>
                    <path d="M88.8484649,24.7432809 L95.580573,24.7432809 C95.8416541,24.7432809 96.0535459,24.5320082 96.0535459,24.27169 C96.0535459,24.0113718 95.8416541,23.8000991 95.580573,23.8000991 L88.8484649,23.8000991 C88.5873838,23.8000991 88.3754919,24.0113718 88.3754919,24.27169 C88.3754919,24.5320082 88.5873838,24.7432809 88.8484649,24.7432809" id="Fill-62" fill="#4A4B4E"></path>
                    <path d="M104.157578,7.96347273 C104.157578,7.70315455 103.945686,7.49188182 103.684605,7.49188182 L91.7497946,7.49188182 C91.4887135,7.49188182 91.2768216,7.70315455 91.2768216,7.96347273 C91.2768216,8.22379091 91.4887135,8.43506364 91.7497946,8.43506364 L103.684605,8.43506364 C103.945686,8.43506364 104.157578,8.22379091 104.157578,7.96347273" id="Fill-64" fill="#4A4B4E"></path>
                    <path d="M59.0637297,61.5281264 L52.7947568,61.5281264 C52.5336757,61.5281264 52.3217838,61.7393991 52.3217838,61.9997173 C52.3217838,62.2600355 52.5336757,62.4713082 52.7947568,62.4713082 L59.0637297,62.4713082 C59.3248108,62.4713082 59.5367027,62.2600355 59.5367027,61.9997173 C59.5367027,61.7393991 59.3248108,61.5281264 59.0637297,61.5281264" id="Fill-66" fill="#4A4B4E"></path>
                    <path d="M63.7287568,27.4755655 L48.1297297,27.4755655 C47.8686486,27.4755655 47.6567568,27.6868382 47.6567568,27.9471564 C47.6567568,28.2074745 47.8686486,28.4187473 48.1297297,28.4187473 L51.9574054,28.4187473 L50.8616216,36.3414745 C50.8260541,36.5987745 51.0069189,36.8372109 51.2657297,36.8726745 C51.2876757,36.8756927 51.3088649,36.8772018 51.3308108,36.8772018 C51.5631351,36.8772018 51.7659459,36.70592 51.7984865,36.4697473 L52.9124324,28.4187473 L58.9460541,28.4187473 L60.0592432,36.4697473 C60.0917838,36.70592 60.2945946,36.8772018 60.5276757,36.8772018 C60.5488649,36.8772018 60.5708108,36.8756927 60.5927568,36.8726745 C60.8515676,36.8372109 61.0324324,36.5987745 60.9968649,36.3414745 L59.9003243,28.4187473 L63.7287568,28.4187473 C63.9898378,28.4187473 64.2017297,28.2074745 64.2017297,27.9471564 C64.2017297,27.6868382 63.9898378,27.4755655 63.7287568,27.4755655" id="Fill-68" fill="#4A4B4E"></path>
                    <path d="M15.1063784,56.1151682 C15.1063784,56.2713591 14.9792432,56.3981227 14.8225946,56.3981227 L5.49935135,56.3981227 C5.34345946,56.3981227 5.21556757,56.2713591 5.21556757,56.1151682 L5.21556757,55.0037227 C5.21556757,54.8482864 5.34345946,54.7207682 5.49935135,54.7207682 L14.8225946,54.7207682 C14.9792432,54.7207682 15.1063784,54.8482864 15.1063784,55.0037227 L15.1063784,56.1151682 Z M14.8225946,53.7775864 L5.49935135,53.7775864 C4.8212973,53.7775864 4.26962162,54.32765 4.26962162,55.0037227 L4.26962162,56.1151682 C4.26962162,56.7912409 4.8212973,57.3413045 5.49935135,57.3413045 L14.8225946,57.3413045 C15.5006486,57.3413045 16.0523243,56.7912409 16.0523243,56.1151682 L16.0523243,55.0037227 C16.0523243,54.32765 15.5006486,53.7775864 14.8225946,53.7775864 L14.8225946,53.7775864 Z" id="Fill-70" fill="#4A4B4E"></path>
                    <path d="M22.0103459,56.1151682 C22.0103459,56.2713591 21.8832108,56.3981227 21.7265622,56.3981227 L19.8006162,56.3981227 C19.6447243,56.3981227 19.5168324,56.2713591 19.5168324,56.1151682 L19.5168324,55.0037227 C19.5168324,54.8482864 19.6447243,54.7207682 19.8006162,54.7207682 L21.7265622,54.7207682 C21.8832108,54.7207682 22.0103459,54.8482864 22.0103459,55.0037227 L22.0103459,56.1151682 Z M21.7265622,53.7775864 L19.8006162,53.7775864 C19.1225622,53.7775864 18.5708865,54.32765 18.5708865,55.0037227 L18.5708865,56.1151682 C18.5708865,56.7912409 19.1225622,57.3413045 19.8006162,57.3413045 L21.7265622,57.3413045 C22.4046162,57.3413045 22.9562919,56.7912409 22.9562919,56.1151682 L22.9562919,55.0037227 C22.9562919,54.32765 22.4046162,53.7775864 21.7265622,53.7775864 L21.7265622,53.7775864 Z" id="Fill-72" fill="#4A4B4E"></path>
                    <path d="M4.74274595,26.3828327 L11.4748541,26.3828327 C11.7359351,26.3828327 11.947827,26.17156 11.947827,25.9112418 C11.947827,25.6509236 11.7359351,25.4396509 11.4748541,25.4396509 L4.74274595,25.4396509 C4.48166486,25.4396509 4.26977297,25.6509236 4.26977297,25.9112418 C4.26977297,26.17156 4.48166486,26.3828327 4.74274595,26.3828327" id="Fill-74" fill="#4A4B4E"></path>
                    <path d="M4.74274595,29.7941327 L14.9271784,29.7941327 C15.1882595,29.7941327 15.4001514,29.58286 15.4001514,29.3225418 C15.4001514,29.0622236 15.1882595,28.8509509 14.9271784,28.8509509 L4.74274595,28.8509509 C4.48166486,28.8509509 4.26977297,29.0622236 4.26977297,29.3225418 C4.26977297,29.58286 4.48166486,29.7941327 4.74274595,29.7941327" id="Fill-76" fill="#4A4B4E"></path>
                    <path d="M18.5708865,29.3225418 C18.5708865,29.58286 18.7827784,29.7941327 19.0438595,29.7941327 L22.3236432,29.7941327 C22.5854811,29.7941327 22.7966162,29.58286 22.7966162,29.3225418 C22.7966162,29.0622236 22.5854811,28.8509509 22.3236432,28.8509509 L19.0438595,28.8509509 C18.7827784,28.8509509 18.5708865,29.0622236 18.5708865,29.3225418" id="Fill-78" fill="#4A4B4E"></path>
                    <path d="M4.74274595,33.2054327 L11.4748541,33.2054327 C11.7359351,33.2054327 11.947827,32.99416 11.947827,32.7338418 C11.947827,32.4735236 11.7359351,32.2622509 11.4748541,32.2622509 L4.74274595,32.2622509 C4.48166486,32.2622509 4.26977297,32.4735236 4.26977297,32.7338418 C4.26977297,32.99416 4.48166486,33.2054327 4.74274595,33.2054327" id="Fill-80" fill="#4A4B4E"></path>
                    <path d="M4.74274595,36.6167327 L14.9271784,36.6167327 C15.1882595,36.6167327 15.4001514,36.40546 15.4001514,36.1451418 C15.4001514,35.8848236 15.1882595,35.6735509 14.9271784,35.6735509 L4.74274595,35.6735509 C4.48166486,35.6735509 4.26977297,35.8848236 4.26977297,36.1451418 C4.26977297,36.40546 4.48166486,36.6167327 4.74274595,36.6167327" id="Fill-82" fill="#4A4B4E"></path>
                    <path d="M22.3240216,35.6735509 L19.0442378,35.6735509 C18.7824,35.6735509 18.5712649,35.8848236 18.5712649,36.1451418 C18.5712649,36.40546 18.7824,36.6167327 19.0442378,36.6167327 L22.3240216,36.6167327 C22.5851027,36.6167327 22.7969946,36.40546 22.7969946,36.1451418 C22.7969946,35.8848236 22.5851027,35.6735509 22.3240216,35.6735509" id="Fill-84" fill="#4A4B4E"></path>
                    <path d="M4.74274595,43.4393327 L14.9271784,43.4393327 C15.1882595,43.4393327 15.4001514,43.22806 15.4001514,42.9677418 C15.4001514,42.7074236 15.1882595,42.4961509 14.9271784,42.4961509 L4.74274595,42.4961509 C4.48166486,42.4961509 4.26977297,42.7074236 4.26977297,42.9677418 C4.26977297,43.22806 4.48166486,43.4393327 4.74274595,43.4393327" id="Fill-86" fill="#4A4B4E"></path>
                    <path d="M22.3240216,42.4961509 L19.0442378,42.4961509 C18.7824,42.4961509 18.5712649,42.7074236 18.5712649,42.9677418 C18.5712649,43.22806 18.7824,43.4393327 19.0442378,43.4393327 L22.3240216,43.4393327 C22.5851027,43.4393327 22.7969946,43.22806 22.7969946,42.9677418 C22.7969946,42.7074236 22.5851027,42.4961509 22.3240216,42.4961509" id="Fill-88" fill="#4A4B4E"></path>
                    <path d="M4.74274595,40.0280327 L11.4748541,40.0280327 C11.7359351,40.0280327 11.947827,39.81676 11.947827,39.5564418 C11.947827,39.2961236 11.7359351,39.0848509 11.4748541,39.0848509 L4.74274595,39.0848509 C4.48166486,39.0848509 4.26977297,39.2961236 4.26977297,39.5564418 C4.26977297,39.81676 4.48166486,40.0280327 4.74274595,40.0280327" id="Fill-90" fill="#4A4B4E"></path>
                    <path d="M4.74274595,50.23575 L14.9271784,50.23575 C15.1882595,50.23575 15.4001514,50.0244773 15.4001514,49.7641591 C15.4001514,49.5038409 15.1882595,49.2925682 14.9271784,49.2925682 L4.74274595,49.2925682 C4.48166486,49.2925682 4.26977297,49.5038409 4.26977297,49.7641591 C4.26977297,50.0244773 4.48166486,50.23575 4.74274595,50.23575" id="Fill-92" fill="#4A4B4E"></path>
                    <path d="M22.3240216,49.2925682 L19.0442378,49.2925682 C18.7824,49.2925682 18.5712649,49.5038409 18.5712649,49.7641591 C18.5712649,50.0244773 18.7824,50.23575 19.0442378,50.23575 L22.3240216,50.23575 C22.5851027,50.23575 22.7969946,50.0244773 22.7969946,49.7641591 C22.7969946,49.5038409 22.5851027,49.2925682 22.3240216,49.2925682" id="Fill-94" fill="#4A4B4E"></path>
                    <path d="M4.74274595,46.82445 L11.4748541,46.82445 C11.7359351,46.82445 11.947827,46.6131773 11.947827,46.3528591 C11.947827,46.0925409 11.7359351,45.8812682 11.4748541,45.8812682 L4.74274595,45.8812682 C4.48166486,45.8812682 4.26977297,46.0925409 4.26977297,46.3528591 C4.26977297,46.6131773 4.48166486,46.82445 4.74274595,46.82445" id="Fill-96" fill="#4A4B4E"></path>
                    <g id="Group-100" transform="translate(0.000000, 9.809091)">
                        <mask id="mask-6" fill="white">
                            <use xlink:href="#path-5"></use>
                        </mask>
                        <g id="Clip-99"></g>
                        <path d="M23.9472649,51.8778673 L21.4885622,52.7984127 L19.0283459,51.8778673 C18.9208865,51.8371218 18.8028324,51.8371218 18.6961297,51.8778673 L16.2359135,52.7984127 L13.7764541,51.8778673 C13.6689946,51.8371218 13.5509405,51.8371218 13.4434811,51.8778673 L10.9832649,52.7984127 L8.52380541,51.8778673 C8.4171027,51.8371218 8.29829189,51.8371218 8.19158919,51.8778673 L5.72985946,52.7984127 L3.26585946,51.8778673 C3.15915676,51.8378764 3.04185946,51.8378764 2.9344,51.8778673 L0.945643243,52.62034 L0.945643243,1.49309455 L2.92834595,2.23481273 C3.03429189,2.27555818 3.15234595,2.27555818 3.26056216,2.23481273 L5.71926486,1.31502182 L8.17948108,2.23481273 C8.23245405,2.25518545 8.28921081,2.26574909 8.34521081,2.26574909 C8.40196757,2.26574909 8.45796757,2.25518545 8.5116973,2.23481273 L10.9719135,1.31502182 L13.431373,2.23481273 C13.5388324,2.27555818 13.6568865,2.27555818 13.7643459,2.23481273 L16.2245622,1.31502182 L18.6840216,2.23481273 C18.7914811,2.27555818 18.9095351,2.27555818 19.0162378,2.23481273 L21.4779676,1.31502182 L23.9419676,2.23556727 C24.0486703,2.27555818 24.1667243,2.27555818 24.273427,2.23556727 L26.2803459,1.48554909 L26.2803459,52.6271309 L24.2794811,51.8778673 C24.1727784,51.8371218 24.0547243,51.8371218 23.9472649,51.8778673 M27.1801297,0.64574 C27.0878054,0.402021818 26.8168865,0.279030909 26.5709405,0.369576364 L24.1076973,1.29012182 L21.6444541,0.369576364 C21.5369946,0.329585455 21.4189405,0.329585455 21.3122378,0.369576364 L18.8505081,1.29012182 L16.3910486,0.369576364 C16.2843459,0.329585455 16.1655351,0.329585455 16.0588324,0.369576364 L13.5978595,1.29012182 L11.1384,0.369576364 C11.0309405,0.329585455 10.9128865,0.329585455 10.805427,0.369576364 L8.34521081,1.29012182 L5.88575135,0.369576364 C5.77829189,0.329585455 5.66023784,0.329585455 5.55277838,0.369576364 L3.09407568,1.29012182 L0.636886486,0.369576364 C0.393210811,0.276767273 0.120021622,0.400512727 0.0284540541,0.64574 C-0.00408648649,0.731003636 -0.00181621622,0.818530909 0.0148324324,0.901530909 C0.0110486486,0.927185455 -0.000302702703,0.949821818 -0.000302702703,0.976985455 L-0.000302702703,53.1756855 C-0.000302702703,53.1945491 0.00877837838,53.2103945 0.0110486486,53.2292582 C-0.00181621622,53.3069764 -0.00181621622,53.3877127 0.0276972973,53.46694 C0.119264865,53.7114127 0.392454054,53.8344036 0.636886486,53.7438582 L3.10012973,52.8225582 L5.56412973,53.7438582 C5.67083243,53.7830945 5.78888649,53.7838491 5.89558919,53.7431036 L8.35731892,52.8225582 L10.8167784,53.7431036 C10.9242378,53.7838491 11.0422919,53.7838491 11.1489946,53.7431036 L13.6099676,52.8225582 L16.069427,53.7431036 C16.1768865,53.7838491 16.2949405,53.7838491 16.4024,53.7431036 L18.8618595,52.8225582 L21.3220757,53.7431036 C21.4295351,53.7838491 21.5475892,53.7838491 21.6550486,53.7431036 L24.1137514,52.8225582 L26.5709405,53.7431036 C26.625427,53.7642309 26.681427,53.7732855 26.737427,53.7732855 C26.9281297,53.7732855 27.1082378,53.6570855 27.179373,53.4676945 C27.2043459,53.4020491 27.2111568,53.3356491 27.2066162,53.2700036 C27.213427,53.2383127 27.2262919,53.2088855 27.2262919,53.1756855 L27.2262919,0.976985455 C27.2262919,0.935485455 27.2119135,0.898512727 27.2020757,0.860785455 C27.2104,0.789858182 27.207373,0.717421818 27.1801297,0.64574" id="Fill-98" fill="#4A4B4E" mask="url(#mask-6)"></path>
                    </g>
                    <path d="M20.0523135,16.4867427 C20.0523135,16.2264245 19.8404216,16.0151518 19.5793405,16.0151518 L7.64452973,16.0151518 C7.38344865,16.0151518 7.17155676,16.2264245 7.17155676,16.4867427 C7.17155676,16.7470609 7.38344865,16.9583336 7.64452973,16.9583336 L19.5793405,16.9583336 C19.8404216,16.9583336 20.0523135,16.7470609 20.0523135,16.4867427" id="Fill-101" fill="#4A4B4E"></path>
                    <path d="M35.4679027,7.53866364 L76.1360108,7.53866364" id="Stroke-103" stroke="#4A4B4E" stroke-width="1.2"></path>
                    <path d="M35.4679027,56.0805345 L76.1360108,56.0805345" id="Stroke-105" stroke="#4A4B4E" stroke-width="1.2"></path>
                </g>
            </g>
        </g>
    </g>
</svg>