<?xml version="1.0" encoding="UTF-8"?>
<svg width="88px" height="83px" viewBox="0 0 88 83" version="1.1" xmlns="http://www.w3.org/2000/svg" xmlns:xlink="http://www.w3.org/1999/xlink">
    <!-- Generator: Sketch 54.1 (76490) - https://sketchapp.com -->
    <title>Group 27</title>
    <desc>Created with Sketch.</desc>
    <defs>
        <polygon id="path-1" points="0 83 88 83 88 0 0 0"></polygon>
    </defs>
    <g id="Page-1" stroke="none" stroke-width="1" fill="none" fill-rule="evenodd">
        <g id="Desktop---HD-Display-Copy-4" transform="translate(-1078.000000, -709.000000)">
            <g id="Group-27" transform="translate(1078.000000, 709.000000)">
                <path d="M9.19607513,67.3750144 L4.05063386,67.3750144 C3.74199951,67.3750144 3.4924817,67.1264986 3.4924817,66.8200467 L3.4924817,18.2649403 C3.4924817,17.9592506 3.74199951,17.7107348 4.05063386,17.7107348 L9.07246784,17.7107348 L9.19607513,17.7107348 L41,17.7107348 L40.5301388,17.3547321 L40.5301388,12.1419991 L32.2384697,12.1419991 L29.149823,6.58774746 C28.9471378,6.22488392 28.5624965,6 28.1448421,6 L15.1783608,6 C14.7614741,6 14.3768328,6.22488392 14.1741475,6.58774746 L11.0524877,12.1793527 L4.59496657,12.1793527 C2.05756231,12.1793527 0,14.222366 0,16.7425905 L0,67.4375245 C0,69.9577491 2.05756231,72 4.59496657,72 L4.60264405,72 C7.14081606,72 9.19761062,69.9577491 9.19761062,67.4375245 L9.19761062,66.0478182 L9.19607513,65.4028968 L9.19607513,67.3750144 Z" id="Fill-1" fill="#FCD470"></path>
                <path d="M77.3496503,12 L73.1313131,12 L73,17.5951677 L77.2983683,17.5951677 C77.6099456,17.5951677 77.8624709,17.8457782 77.8624709,18.155764 L77.8624709,36 L82,36 L82,16.615088 C82,14.0665724 79.9176379,12 77.3496503,12" id="Fill-3" fill="#FCD470"></path>
                <mask id="mask-2" fill="white">
                    <use xlink:href="#path-1"></use>
                </mask>
                <g id="Clip-6"></g>
                <polygon id="Fill-5" fill="#FCD470" mask="url(#mask-2)" points="17 51 43 51 43 45 17 45"></polygon>
                <path d="M46,15.6183953 L46,18.3823163 C46,18.7238925 46.3257555,19 46.7286832,19 L67.2713168,19 C67.6735024,19 68,18.7238925 68,18.3823163 L68,15.6183953 C68,15.2775307 67.6735024,15 67.2713168,15 L46.7286832,15 C46.3257555,15 46,15.2775307 46,15.6183953" id="Fill-7" fill="#FCD470" mask="url(#mask-2)"></path>
                <polygon id="Fill-8" fill="#FCD470" mask="url(#mask-2)" points="51 0 41 10 51 10"></polygon>
                <path d="M51.1941055,22 L45.8058945,22 C45.3610408,22 45,22.3140921 45,22.7010984 L45,24.2989016 C45,24.6859079 45.3610408,25 45.8058945,25 L51.1941055,25 C51.6397651,25 52,24.6859079 52,24.2989016 L52,22.7010984 C52,22.3140921 51.6397651,22 51.1941055,22" id="Fill-9" fill="#FCD470" mask="url(#mask-2)"></path>
                <path d="M59.1941982,22 L53.8058018,22 C53.361805,22 53,22.3140921 53,22.7010984 L53,24.2989016 C53,24.6859079 53.361805,25 53.8058018,25 L59.1941982,25 C59.6398066,25 60,24.6859079 60,24.2989016 L60,22.7010984 C60,22.3140921 59.6398066,22 59.1941982,22" id="Fill-10" fill="#FCD470" mask="url(#mask-2)"></path>
                <path d="M68.1941982,22 L62.8058018,22 C62.361805,22 62,22.3140921 62,22.7010984 L62,24.2989016 C62,24.6859079 62.361805,25 62.8058018,25 L68.1941982,25 C68.6398066,25 69,24.6859079 69,24.2989016 L69,22.7010984 C69,22.3140921 68.6398066,22 68.1941982,22" id="Fill-11" fill="#FCD470" mask="url(#mask-2)"></path>
                <path d="M51.1941055,27 L45.8058945,27 C45.3610408,27 45,27.3140921 45,27.7010984 L45,29.2989016 C45,29.6859079 45.3610408,30 45.8058945,30 L51.1941055,30 C51.6397651,30 52,29.6859079 52,29.2989016 L52,27.7010984 C52,27.3140921 51.6397651,27 51.1941055,27" id="Fill-12" fill="#FCD470" mask="url(#mask-2)"></path>
                <path d="M59.1941982,27 L53.8058018,27 C53.361805,27 53,27.3140921 53,27.7010984 L53,29.2989016 C53,29.6859079 53.361805,30 53.8058018,30 L59.1941982,30 C59.6398066,30 60,29.6859079 60,29.2989016 L60,27.7010984 C60,27.3140921 59.6398066,27 59.1941982,27" id="Fill-13" fill="#FCD470" mask="url(#mask-2)"></path>
                <path d="M68.1941982,27 L62.8058018,27 C62.361805,27 62,27.3140921 62,27.7010984 L62,29.2989016 C62,29.6859079 62.361805,30 62.8058018,30 L68.1941982,30 C68.6398066,30 69,29.6859079 69,29.2989016 L69,27.7010984 C69,27.3140921 68.6398066,27 68.1941982,27" id="Fill-14" fill="#FCD470" mask="url(#mask-2)"></path>
                <path d="M51.1941055,32 L45.8058945,32 C45.3610408,32 45,32.313391 45,32.7010984 L45,34.2989016 C45,34.6859079 45.3610408,35 45.8058945,35 L51.1941055,35 C51.6397651,35 52,34.6859079 52,34.2989016 L52,32.7010984 C52,32.313391 51.6397651,32 51.1941055,32" id="Fill-15" fill="#FCD470" mask="url(#mask-2)"></path>
                <path d="M59.1941982,32 L53.8058018,32 C53.361805,32 53,32.313391 53,32.7010984 L53,34.2989016 C53,34.6859079 53.361805,35 53.8058018,35 L59.1941982,35 C59.6398066,35 60,34.6859079 60,34.2989016 L60,32.7010984 C60,32.313391 59.6398066,32 59.1941982,32" id="Fill-16" fill="#FCD470" mask="url(#mask-2)"></path>
                <path d="M68.1941982,32 L62.8058018,32 C62.361805,32 62,32.313391 62,32.7010984 L62,34.2989016 C62,34.6859079 62.361805,35 62.8058018,35 L68.1941982,35 C68.6398066,35 69,34.6859079 69,34.2989016 L69,32.7010984 C69,32.313391 68.6398066,32 68.1941982,32" id="Fill-17" fill="#FCD470" mask="url(#mask-2)"></path>
                <path d="M6.5,56 C6.224,56 6,56.2091894 6,56.4669406 L6,65.5330594 C6,65.7908106 6.224,66 6.5,66 C6.776,66 7,65.7908106 7,65.5330594 L7,56.4669406 C7,56.2091894 6.776,56 6.5,56" id="Fill-18" fill="#4A4B4E" mask="url(#mask-2)"></path>
                <path d="M6.5,34 C6.224,34 6,34.2084639 6,34.4653213 L6,52.5346787 C6,52.7915361 6.224,53 6.5,53 C6.776,53 7,52.7915361 7,52.5346787 L7,34.4653213 C7,34.2084639 6.776,34 6.5,34" id="Fill-19" fill="#4A4B4E" mask="url(#mask-2)"></path>
                <path d="M6.5,20 C6.224,20 6,20.2108289 6,20.4706003 L6,30.5293997 C6,30.7891711 6.224,31 6.5,31 C6.776,31 7,30.7891711 7,30.5293997 L7,20.4706003 C7,20.2108289 6.776,20 6.5,20" id="Fill-20" fill="#4A4B4E" mask="url(#mask-2)"></path>
                <path d="M17.9412422,51.0963544 L47.0587578,51.0963544 L47.0587578,45.9036456 L17.9412422,45.9036456 L17.9412422,51.0963544 Z M17.4706211,52 L47.5293789,52 C47.7891617,52 48,51.7975834 48,51.5481772 L48,45.4518228 C48,45.2024166 47.7891617,45 47.5293789,45 L17.4706211,45 C17.2108383,45 17,45.2024166 17,45.4518228 L17,51.5481772 C17,51.7975834 17.2108383,52 17.4706211,52 L17.4706211,52 Z" id="Fill-21" fill="#4A4B4E" mask="url(#mask-2)"></path>
                <path d="M64.5238322,55 L17.4761678,55 C17.2133232,55 17,55.224 17,55.5 C17,55.776 17.2133232,56 17.4761678,56 L64.5238322,56 C64.7866768,56 65,55.776 65,55.5 C65,55.224 64.7866768,55 64.5238322,55" id="Fill-22" fill="#4A4B4E" mask="url(#mask-2)"></path>
                <path d="M53.5226644,59 L17.4773356,59 C17.2130826,59 17,59.224 17,59.5 C17,59.776 17.2130826,60 17.4773356,60 L53.5226644,60 C53.7861537,60 54,59.776 54,59.5 C54,59.224 53.7861537,59 53.5226644,59" id="Fill-23" fill="#4A4B4E" mask="url(#mask-2)"></path>
                <path d="M67.0694889,17.912822 C67.0694889,17.9965071 66.9608053,18.0903799 66.8044794,18.0903799 L46.196265,18.0903799 C46.0391947,18.0903799 45.9305111,17.9965071 45.9305111,17.912822 L45.9305111,15.087178 C45.9305111,15.0027652 46.0391947,14.9096201 46.196265,14.9096201 L66.8044794,14.9096201 C66.9608053,14.9096201 67.0694889,15.0027652 67.0694889,15.087178 L67.0694889,17.912822 Z M66.8044794,14 L46.196265,14 C45.5359744,14 45,14.4875564 45,15.087178 L45,17.912822 C45,18.5124436 45.5359744,19 46.196265,19 L66.8044794,19 C67.4632812,19 68,18.5124436 68,17.912822 L68,15.087178 C68,14.4875564 67.4632812,14 66.8044794,14 L66.8044794,14 Z" id="Fill-24" fill="#4A4B4E" mask="url(#mask-2)"></path>
                <path d="M55.4576433,7 L67.5423567,7 C67.7949758,7 68,6.776 68,6.5 C68,6.224 67.7949758,6 67.5423567,6 L55.4576433,6 C55.2050242,6 55,6.224 55,6.5 C55,6.776 55.2050242,7 55.4576433,7" id="Fill-25" fill="#4A4B4E" mask="url(#mask-2)"></path>
                <path d="M82.4392967,73.71286 C82.2866989,73.7319285 82.1523216,73.8242203 82.079439,73.9599882 C82.0065565,74.0957562 82.0035197,74.2589829 82.0726063,74.3978018 L85.003093,80.341846 L81.8972326,81.884872 L78.9386558,75.8637909 C78.8718468,75.7287857 78.7450615,75.6326803 78.5962596,75.6052216 C78.5681694,75.6006451 78.5408384,75.5983569 78.5127483,75.5983569 C78.3927957,75.5983569 78.2758799,75.6441214 78.1870543,75.7287857 L75.2398654,78.5242331 L74.9688333,63.1580437 L86.4136744,73.2254682 L82.4392967,73.71286 Z M74.7889045,61.7317172 C74.6476945,61.6073903 74.4487858,61.5791689 74.2756897,61.6577313 C74.1056304,61.7370564 73.9985841,61.9101987 74.0016209,62.0985958 L74.1724394,71.8296513 L7.95103285,71.8296513 C9.2166083,70.9135989 10.0448883,69.4239648 10.0448883,67.7413571 L10.0448883,40.7570898 C10.0448883,38.5031888 11.8699894,36.6687956 14.1141652,36.6687956 L20.4997411,36.6687956 C20.6728372,36.6687956 20.8315087,36.5749784 20.9150199,36.4231929 L24.0011413,30.8284843 C24.118057,30.6172049 24.3397415,30.4860133 24.5796467,30.4860133 L37.4016646,30.4860133 C37.6415697,30.4860133 37.8632542,30.6172049 37.9794108,30.8277215 L41.0662913,36.4231929 C41.1498026,36.5749784 41.308474,36.6687956 41.4815701,36.6687956 L77.9251326,36.6687956 C77.9327245,36.6687956 77.9395572,36.6642192 77.9479084,36.6642192 C77.9555003,36.6642192 77.962333,36.6687956 77.9691658,36.6687956 C78.2310875,36.6687956 78.4436617,36.455228 78.4436617,36.1920822 L78.4436617,18.5414821 C78.4436617,17.972477 77.9835905,17.5102557 77.4179914,17.5102557 L73.7381808,17.5102557 L73.7381808,12.9292305 L77.4680981,12.9292305 C79.7122739,12.9292305 81.5381341,14.7636237 81.5381341,17.0175247 L81.5381341,67.6681339 L74.7889045,61.7317172 Z M0.948991794,67.7413571 L0.948991794,17.0175247 C0.948991794,14.7636237 2.77485201,12.9292305 5.01826861,12.9292305 L11.4046038,12.9292305 C11.5769407,12.9292305 11.7356121,12.8354133 11.8191234,12.6836277 L14.9052447,7.08891911 C15.0221605,6.87687699 15.243845,6.7464482 15.4845093,6.7464482 L28.305768,6.7464482 C28.5464324,6.7464482 28.7681168,6.87687699 28.8842734,7.08815637 L31.959766,12.682865 C32.0425181,12.8354133 32.2019487,12.9292305 32.3750448,12.9292305 L40.2106803,12.9292305 C40.2311785,12.9292305 40.2501584,12.9193148 40.2698974,12.9170266 L40.2698974,17.5102557 L4.48000046,17.5102557 C3.91364216,17.5102557 3.45357094,17.972477 3.45357094,18.5414821 L3.45357094,67.1242993 C3.45357094,67.6925417 3.91364216,68.1555257 4.48000046,68.1555257 L9.05414091,68.1555257 C8.84384433,70.2134022 7.12882636,71.8296513 5.02586054,71.8296513 L5.01826861,71.8296513 C2.77485201,71.8296513 0.948991794,69.9952581 0.948991794,67.7413571 L0.948991794,67.7413571 Z M49.9670751,1.61701189 L49.9670751,9.62350898 L41.9006449,9.62350898 L49.9670751,1.61701189 Z M69.9665078,0.953426823 C71.5228543,0.953426823 72.789189,2.22567958 72.789189,3.78929956 L72.789189,17.8580658 C72.7770419,17.9000165 72.7633764,17.9412046 72.7633764,17.9869691 C72.7633764,18.0319708 72.7770419,18.0739216 72.789189,18.1158724 L72.789189,35.7153688 L41.7609533,35.7153688 L38.8099684,30.3655002 C38.5260301,29.8521752 37.9862435,29.5325865 37.4016646,29.5325865 L24.5796467,29.5325865 C23.9950677,29.5325865 23.4552812,29.8521752 23.1713428,30.3662629 L20.220358,35.7153688 L14.1141652,35.7153688 C11.3469051,35.7153688 9.09589655,37.9768972 9.09589655,40.7570898 L9.09589655,65.6964473 C9.09589655,65.6994982 9.09361897,65.7025492 9.09361897,65.7056002 L9.09361897,67.2020989 L4.48000046,67.2020989 C4.43748563,67.2020989 4.40256273,67.1670128 4.40256273,67.1242993 L4.40256273,18.5414821 C4.40256273,18.4987686 4.43748563,18.4636825 4.48000046,18.4636825 L9.09589655,18.4636825 L9.09589655,35.2638258 C9.09589655,35.5269716 9.30771151,35.7405392 9.57039244,35.7405392 C9.83231418,35.7405392 10.0448883,35.5269716 10.0448883,35.2638258 L10.0448883,18.4636825 L40.2698974,18.4636825 L40.2698974,29.4074969 C40.2698974,29.6706427 40.4824715,29.8842103 40.7443933,29.8842103 C41.006315,29.8842103 41.2188892,29.6706427 41.2188892,29.4074969 L41.2188892,10.6532099 C41.2188892,10.6272767 41.2317955,10.602869 41.2348322,10.5769358 L50.441571,10.5769358 C50.7027336,10.5769358 50.9160669,10.3633682 50.9160669,10.1002224 L50.9160669,0.966393428 C50.9388427,0.964867945 50.9593409,0.953426823 50.9821168,0.953426823 L69.9665078,0.953426823 Z M77.4946699,35.7153688 L73.7381808,35.7153688 L73.7381808,18.4636825 L77.4179914,18.4636825 C77.459747,18.4636825 77.4946699,18.4987686 77.4946699,18.5414821 L77.4946699,35.7153688 Z M87.8379213,73.2102134 L82.4355008,68.4583341 C82.4696645,68.219596 82.4863667,67.9785697 82.4863667,67.7413571 L82.4863667,17.0175247 C82.4863667,14.2373321 80.2353582,11.9758036 77.4680981,11.9758036 L73.7381808,11.9758036 L73.7381808,3.78929956 C73.7381808,1.70015071 72.0466978,0 69.9665078,0 L50.9821168,0 C50.5076209,0 50.0604559,0.184583433 49.7218556,0.520189675 L40.8036104,9.37104156 C40.4642509,9.7066478 40.2698974,10.1742083 40.2698974,10.6532099 L40.2698974,11.9880075 C40.2501584,11.9849565 40.2311785,11.9758036 40.2106803,11.9758036 L32.6551872,11.9758036 L29.7148311,6.62593505 C29.4308927,6.11261005 28.8911062,5.79302138 28.305768,5.79302138 L15.4845093,5.79302138 C14.8991712,5.79302138 14.3593846,6.11261005 14.0754463,6.62669779 L11.1244614,11.9758036 L5.01826861,11.9758036 C2.25100854,11.9758036 0,14.2373321 0,17.0175247 L0,67.7413571 C0,70.5215497 2.25100854,72.7830782 5.01826861,72.7830782 L74.1899009,72.7830782 L74.3098534,79.6195299 C74.3136494,79.8086897 74.4267692,79.9780183 74.6006245,80.0512415 C74.7722022,80.1244647 74.9733885,80.0886159 75.1100433,79.9581871 L78.3722975,76.8645077 L81.2564734,82.7338032 C81.3126537,82.8482144 81.4113488,82.9344042 81.5305422,82.9748295 C81.5791306,82.9916098 81.6315149,83 81.6823809,83 C81.7545043,83 81.8266276,82.9832197 81.8926775,82.9504218 L85.8495936,80.9855998 C85.9627135,80.9291569 86.0485023,80.8307633 86.0887396,80.7110129 C86.1289768,80.5912625 86.1206257,80.4600709 86.0636862,80.3464225 L83.2197476,74.5778088 L87.5828323,74.0423643 C87.7688347,74.0194821 87.9237101,73.8890533 87.9791312,73.709809 C88.0337932,73.5298021 87.9791312,73.3345402 87.8379213,73.2102134 L87.8379213,73.2102134 Z" id="Fill-26" fill="#4A4B4E" mask="url(#mask-2)"></path>
            </g>
        </g>
    </g>
</svg>