<svg xmlns="http://www.w3.org/2000/svg" viewBox="0 0 42.8205 39.99371">
  <defs>
    <style>
      .artwork {
        fill: #dbae55;
      }
    </style>
  </defs>
  <path class="artwork" d="M39.51337,19.6181H28.49316a2.73038,2.73038,0,0,0-2.73053,2.72406V37.854a2.1443,2.1443,0,0,0,2.14417,2.13971H39.51337A2.14477,2.14477,0,0,0,41.65808,37.854V21.7572A2.14429,2.14429,0,0,0,39.51337,19.6181ZM40.321,37.854a.80813.80813,0,0,1-.80767.8064H27.9068a.80762.80762,0,0,1-.80707-.8064V22.34216a1.394,1.394,0,0,1,1.39343-1.39074H39.51337a.808.808,0,0,1,.80767.80578ZM29.25452,31.0011h8.91089v1.33331H29.25452Zm0,2.83655H36.421V35.171h-7.1665ZM35.3866,22.38531a3.14409,3.14409,0,1,0,3.1524,3.14435A3.15185,3.15185,0,0,0,35.3866,22.38531Zm0,4.95539a1.811,1.811,0,1,1,1.8153-1.811A1.81479,1.81479,0,0,1,35.3866,27.3407Zm-17.85517.35A2.40522,2.40522,0,1,0,19.94177,30.096,2.411,2.411,0,0,0,17.53143,27.69073Zm0,3.47712a1.0719,1.0719,0,1,1,1.07386-1.0719A1.07441,1.07441,0,0,1,17.53143,31.16785Zm-7.26916-3.47712A2.40522,2.40522,0,1,0,12.67255,30.096,2.411,2.411,0,0,0,10.26227,27.69073Zm0,3.47712a1.0719,1.0719,0,1,1,1.07379-1.0719A1.07446,1.07446,0,0,1,10.26227,31.16785ZM2.9928,27.69073A2.40522,2.40522,0,1,0,5.40314,30.096,2.411,2.411,0,0,0,2.9928,27.69073Zm0,3.47712A1.0719,1.0719,0,1,1,4.0672,30.096,1.07441,1.07441,0,0,1,2.9928,31.16785ZM40.4104,7.38477A2.40522,2.40522,0,1,0,42.82074,9.79,2.4106,2.4106,0,0,0,40.4104,7.38477Zm0,3.47711A1.0719,1.0719,0,1,1,41.48425,9.79,1.07441,1.07441,0,0,1,40.4104,10.86188Zm-7.26978,1.33331A2.40522,2.40522,0,1,0,30.73029,9.79,2.411,2.411,0,0,0,33.14062,12.19519Zm0-3.47711A1.0719,1.0719,0,1,1,32.06677,9.79,1.07437,1.07437,0,0,1,33.14062,8.71808ZM28.28235,9.79a2.41062,2.41062,0,1,0-2.41095,2.40521A2.41065,2.41065,0,0,0,28.28235,9.79Zm-3.48474,0a1.07413,1.07413,0,1,1,1.07379,1.0719A1.07424,1.07424,0,0,1,24.79761,9.79Zm-6.2638,4.93011V13.54443a1.24937,1.24937,0,0,0-1.24987-1.24633h-1.328V7.55023l2.14258.00049h.00061a1.72152,1.72152,0,0,0,1.01514-3.11481L11.02039.29736a1.7255,1.7255,0,0,0-1.93677,0l-8.00147,4.08-.08892.0545A1.72207,1.72207,0,0,0,2.00958,7.54724l2.14221.00049V12.2981H2.82373A1.24886,1.24886,0,0,0,1.5744,13.54443v1.17566A2.24251,2.24251,0,0,0,.00024,16.85632v1.28986a1.30467,1.30467,0,0,0,1.30512,1.30206h17.4975A1.305,1.305,0,0,0,20.108,18.14618V16.85632A2.24319,2.24319,0,0,0,18.53381,14.72009Zm-3.915-2.422H13.04877V7.54962L14.61884,7.55ZM11.71167,7.54932V12.2981H8.39606V7.54865ZM1.63824,5.94434a.37086.37086,0,0,1,.10865-.4087L9.73328,1.46375l.08892-.05506a.38944.38944,0,0,1,.4596.00061L18.36,5.53973a.38922.38922,0,0,1-.26087.67768h-.00061L2.01013,6.21393A.37424.37424,0,0,1,1.63824,5.94434Zm3.85,1.60363,1.57129.00037V12.2981H5.48828ZM1.33612,18.14618V16.85632a.90658.90658,0,0,1,.90649-.90429h.66828V13.63141H17.19678V15.952H17.865a.906.906,0,0,1,.90588.90429l.032,1.25855Z" transform="translate(-0.00024)"/>
</svg>
