<?xml version="1.0" encoding="UTF-8"?>
<svg width="309px" height="217px" viewBox="0 0 309 217" version="1.1" xmlns="http://www.w3.org/2000/svg" xmlns:xlink="http://www.w3.org/1999/xlink">
    <!-- Generator: Sketch 54.1 (76490) - https://sketchapp.com -->
    <title>Group 89</title>
    <desc>Created with Sketch.</desc>
    <g id="Page-1" stroke="none" stroke-width="1" fill="none" fill-rule="evenodd">
        <g id="Desktop---HD-Display-Copy-4" transform="translate(-98.000000, -5715.000000)" fill="#CBE2E1">
            <g id="Group-89" transform="translate(98.000000, 5715.000000)">
                <path d="M0.446531792,216.163776 C0.200046243,216.163776 0,216.029647 0,215.864381 L0,0.299395812 C0,0.134129324 0.200046243,0 0.446531792,0 C0.693017341,0 0.893063584,0.134129324 0.893063584,0.299395812 L0.893063584,215.864381 C0.893063584,216.029647 0.693017341,216.163776 0.446531792,216.163776" id="Fill-1"></path>
                <path d="M7.61180938,216.163776 C7.36532383,216.163776 7.16527759,216.029647 7.16527759,215.864381 L7.16527759,0.299395812 C7.16527759,0.134129324 7.36532383,0 7.61180938,0 C7.85829493,0 8.05834117,0.134129324 8.05834117,0.299395812 L8.05834117,215.864381 C8.05834117,216.029647 7.85829493,216.163776 7.61180938,216.163776" id="Fill-3"></path>
                <path d="M14.777087,216.163776 C14.5306014,216.163776 14.3305552,216.029647 14.3305552,215.864381 L14.3305552,0.299395812 C14.3305552,0.134129324 14.5306014,0 14.777087,0 C15.0235725,0 15.2236188,0.134129324 15.2236188,0.299395812 L15.2236188,215.864381 C15.2236188,216.029647 15.0235725,216.163776 14.777087,216.163776" id="Fill-5"></path>
                <path d="M21.9423646,216.163776 C21.695879,216.163776 21.4958328,216.029647 21.4958328,215.864381 L21.4958328,0.299395812 C21.4958328,0.134129324 21.695879,0 21.9423646,0 C22.1888501,0 22.3888964,0.134129324 22.3888964,0.299395812 L22.3888964,215.864381 C22.3888964,216.029647 22.1888501,216.163776 21.9423646,216.163776" id="Fill-7"></path>
                <path d="M29.1076422,216.163776 C28.8611566,216.163776 28.6611104,216.029647 28.6611104,215.864381 L28.6611104,0.299395812 C28.6611104,0.134129324 28.8611566,0 29.1076422,0 C29.3541277,0 29.5541739,0.134129324 29.5541739,0.299395812 L29.5541739,215.864381 C29.5541739,216.029647 29.3541277,216.163776 29.1076422,216.163776" id="Fill-9"></path>
                <path d="M36.2729197,216.163776 C36.0264342,216.163776 35.826388,216.029647 35.826388,215.864381 L35.826388,0.299395812 C35.826388,0.134129324 36.0264342,0 36.2729197,0 C36.5194053,0 36.7194515,0.134129324 36.7194515,0.299395812 L36.7194515,215.864381 C36.7194515,216.029647 36.5194053,216.163776 36.2729197,216.163776" id="Fill-11"></path>
                <path d="M43.4381973,216.163776 C43.1917118,216.163776 42.9916655,216.029647 42.9916655,215.864381 L42.9916655,0.299395812 C42.9916655,0.134129324 43.1917118,0 43.4381973,0 C43.6846829,0 43.8847291,0.134129324 43.8847291,0.299395812 L43.8847291,215.864381 C43.8847291,216.029647 43.6846829,216.163776 43.4381973,216.163776" id="Fill-13"></path>
                <path d="M50.6034749,216.163776 C50.3569894,216.163776 50.1569431,216.029647 50.1569431,215.864381 L50.1569431,0.299395812 C50.1569431,0.134129324 50.3569894,0 50.6034749,0 C50.8499605,0 51.0500067,0.134129324 51.0500067,0.299395812 L51.0500067,215.864381 C51.0500067,216.029647 50.8499605,216.163776 50.6034749,216.163776" id="Fill-15"></path>
                <path d="M57.7687525,216.163776 C57.522267,216.163776 57.3222207,216.029647 57.3222207,215.864381 L57.3222207,0.299395812 C57.3222207,0.134129324 57.522267,0 57.7687525,0 C58.0152381,0 58.2152843,0.134129324 58.2152843,0.299395812 L58.2152843,215.864381 C58.2152843,216.029647 58.0152381,216.163776 57.7687525,216.163776" id="Fill-17"></path>
                <path d="M64.9340301,216.163776 C64.6875446,216.163776 64.4874983,216.029647 64.4874983,215.864381 L64.4874983,0.299395812 C64.4874983,0.134129324 64.6875446,0 64.9340301,0 C65.1805157,0 65.3805619,0.134129324 65.3805619,0.299395812 L65.3805619,215.864381 C65.3805619,216.029647 65.1805157,216.163776 64.9340301,216.163776" id="Fill-19"></path>
                <path d="M72.0993077,216.163776 C71.8528222,216.163776 71.6527759,216.029647 71.6527759,215.864381 L71.6527759,0.299395812 C71.6527759,0.134129324 71.8528222,0 72.0993077,0 C72.3457933,0 72.5458395,0.134129324 72.5458395,0.299395812 L72.5458395,215.864381 C72.5458395,216.029647 72.3457933,216.163776 72.0993077,216.163776" id="Fill-21"></path>
                <path d="M79.2645853,216.163776 C79.0180997,216.163776 78.8180535,216.029647 78.8180535,215.864381 L78.8180535,0.299395812 C78.8180535,0.134129324 79.0180997,0 79.2645853,0 C79.5110708,0 79.7111171,0.134129324 79.7111171,0.299395812 L79.7111171,215.864381 C79.7111171,216.029647 79.5110708,216.163776 79.2645853,216.163776" id="Fill-23"></path>
                <path d="M86.4298629,216.163776 C86.1833773,216.163776 85.9833311,216.029647 85.9833311,215.864381 L85.9833311,0.299395812 C85.9833311,0.134129324 86.1833773,0 86.4298629,0 C86.6763484,0 86.8763947,0.134129324 86.8763947,0.299395812 L86.8763947,215.864381 C86.8763947,216.029647 86.6763484,216.163776 86.4298629,216.163776" id="Fill-25"></path>
                <path d="M93.5951405,216.163776 C93.3486549,216.163776 93.1486087,216.029647 93.1486087,215.864381 L93.1486087,0.299395812 C93.1486087,0.134129324 93.3486549,0 93.5951405,0 C93.841626,0 94.0416723,0.134129324 94.0416723,0.299395812 L94.0416723,215.864381 C94.0416723,216.029647 93.841626,216.163776 93.5951405,216.163776" id="Fill-27"></path>
                <path d="M100.760418,216.163776 C100.513933,216.163776 100.313886,216.029647 100.313886,215.864381 L100.313886,0.299395812 C100.313886,0.134129324 100.513933,0 100.760418,0 C101.006904,0 101.20695,0.134129324 101.20695,0.299395812 L101.20695,215.864381 C101.20695,216.029647 101.006904,216.163776 100.760418,216.163776" id="Fill-29"></path>
                <path d="M107.925696,216.163776 C107.67921,216.163776 107.479164,216.029647 107.479164,215.864381 L107.479164,0.299395812 C107.479164,0.134129324 107.67921,0 107.925696,0 C108.172181,0 108.372227,0.134129324 108.372227,0.299395812 L108.372227,215.864381 C108.372227,216.029647 108.172181,216.163776 107.925696,216.163776" id="Fill-31"></path>
                <path d="M115.090973,216.163776 C114.844488,216.163776 114.644441,216.029647 114.644441,215.864381 L114.644441,0.299395812 C114.644441,0.134129324 114.844488,0 115.090973,0 C115.337459,0 115.537505,0.134129324 115.537505,0.299395812 L115.537505,215.864381 C115.537505,216.029647 115.337459,216.163776 115.090973,216.163776" id="Fill-33"></path>
                <path d="M122.256251,216.163776 C122.009765,216.163776 121.809719,216.029647 121.809719,215.864381 L121.809719,0.299395812 C121.809719,0.134129324 122.009765,0 122.256251,0 C122.502736,0 122.702783,0.134129324 122.702783,0.299395812 L122.702783,215.864381 C122.702783,216.029647 122.502736,216.163776 122.256251,216.163776" id="Fill-35"></path>
                <path d="M129.421528,216.163776 C129.175043,216.163776 128.974997,216.029647 128.974997,215.864381 L128.974997,0.299395812 C128.974997,0.134129324 129.175043,0 129.421528,0 C129.668014,0 129.86806,0.134129324 129.86806,0.299395812 L129.86806,215.864381 C129.86806,216.029647 129.668014,216.163776 129.421528,216.163776" id="Fill-37"></path>
                <path d="M136.586806,216.163776 C136.34032,216.163776 136.140274,216.029647 136.140274,215.864381 L136.140274,0.299395812 C136.140274,0.134129324 136.34032,0 136.586806,0 C136.833292,0 137.033338,0.134129324 137.033338,0.299395812 L137.033338,215.864381 C137.033338,216.029647 136.833292,216.163776 136.586806,216.163776" id="Fill-39"></path>
                <path d="M143.752084,216.163776 C143.505598,216.163776 143.305552,216.029647 143.305552,215.864381 L143.305552,0.299395812 C143.305552,0.134129324 143.505598,0 143.752084,0 C143.998569,0 144.198615,0.134129324 144.198615,0.299395812 L144.198615,215.864381 C144.198615,216.029647 143.998569,216.163776 143.752084,216.163776" id="Fill-41"></path>
                <path d="M150.917361,216.163776 C150.670876,216.163776 150.470829,216.029647 150.470829,215.864381 L150.470829,0.299395812 C150.470829,0.134129324 150.670876,0 150.917361,0 C151.163847,0 151.363893,0.134129324 151.363893,0.299395812 L151.363893,215.864381 C151.363893,216.029647 151.163847,216.163776 150.917361,216.163776" id="Fill-43"></path>
                <path d="M158.082639,216.163776 C157.836153,216.163776 157.636107,216.029647 157.636107,215.864381 L157.636107,0.299395812 C157.636107,0.134129324 157.836153,0 158.082639,0 C158.329124,0 158.529171,0.134129324 158.529171,0.299395812 L158.529171,215.864381 C158.529171,216.029647 158.329124,216.163776 158.082639,216.163776" id="Fill-45"></path>
                <path d="M165.247916,216.163776 C165.001431,216.163776 164.801385,216.029647 164.801385,215.864381 L164.801385,0.299395812 C164.801385,0.134129324 165.001431,0 165.247916,0 C165.494402,0 165.694448,0.134129324 165.694448,0.299395812 L165.694448,215.864381 C165.694448,216.029647 165.494402,216.163776 165.247916,216.163776" id="Fill-47"></path>
                <path d="M172.413194,216.163776 C172.166708,216.163776 171.966662,216.029647 171.966662,215.864381 L171.966662,0.299395812 C171.966662,0.134129324 172.166708,0 172.413194,0 C172.65968,0 172.859726,0.134129324 172.859726,0.299395812 L172.859726,215.864381 C172.859726,216.029647 172.65968,216.163776 172.413194,216.163776" id="Fill-49"></path>
                <path d="M179.578472,216.163776 C179.331986,216.163776 179.13194,216.029647 179.13194,215.864381 L179.13194,0.299395812 C179.13194,0.134129324 179.331986,0 179.578472,0 C179.824957,0 180.025003,0.134129324 180.025003,0.299395812 L180.025003,215.864381 C180.025003,216.029647 179.824957,216.163776 179.578472,216.163776" id="Fill-51"></path>
                <path d="M186.743749,216.163776 C186.497264,216.163776 186.297217,216.029647 186.297217,215.864381 L186.297217,0.299395812 C186.297217,0.134129324 186.497264,0 186.743749,0 C186.990235,0 187.190281,0.134129324 187.190281,0.299395812 L187.190281,215.864381 C187.190281,216.029647 186.990235,216.163776 186.743749,216.163776" id="Fill-53"></path>
                <path d="M193.909027,216.163776 C193.662541,216.163776 193.462495,216.029647 193.462495,215.864381 L193.462495,0.299395812 C193.462495,0.134129324 193.662541,0 193.909027,0 C194.155512,0 194.355559,0.134129324 194.355559,0.299395812 L194.355559,215.864381 C194.355559,216.029647 194.155512,216.163776 193.909027,216.163776" id="Fill-55"></path>
                <path d="M201.074304,216.163776 C200.827819,216.163776 200.627773,216.029647 200.627773,215.864381 L200.627773,0.299395812 C200.627773,0.134129324 200.827819,0 201.074304,0 C201.32079,0 201.520836,0.134129324 201.520836,0.299395812 L201.520836,215.864381 C201.520836,216.029647 201.32079,216.163776 201.074304,216.163776" id="Fill-57"></path>
                <path d="M208.239582,216.163776 C207.993096,216.163776 207.79305,216.029647 207.79305,215.864381 L207.79305,0.299395812 C207.79305,0.134129324 207.993096,0 208.239582,0 C208.486067,0 208.686114,0.134129324 208.686114,0.299395812 L208.686114,215.864381 C208.686114,216.029647 208.486067,216.163776 208.239582,216.163776" id="Fill-59"></path>
                <path d="M215.40486,216.163776 C215.158374,216.163776 214.958328,216.029647 214.958328,215.864381 L214.958328,0.299395812 C214.958328,0.134129324 215.158374,0 215.40486,0 C215.651345,0 215.851391,0.134129324 215.851391,0.299395812 L215.851391,215.864381 C215.851391,216.029647 215.651345,216.163776 215.40486,216.163776" id="Fill-61"></path>
                <path d="M222.570137,216.163776 C222.323652,216.163776 222.123605,216.029647 222.123605,215.864381 L222.123605,0.299395812 C222.123605,0.134129324 222.323652,0 222.570137,0 C222.816623,0 223.016669,0.134129324 223.016669,0.299395812 L223.016669,215.864381 C223.016669,216.029647 222.816623,216.163776 222.570137,216.163776" id="Fill-63"></path>
                <path d="M229.735415,216.163776 C229.488929,216.163776 229.288883,216.029647 229.288883,215.864381 L229.288883,0.299395812 C229.288883,0.134129324 229.488929,0 229.735415,0 C229.9819,0 230.181946,0.134129324 230.181946,0.299395812 L230.181946,215.864381 C230.181946,216.029647 229.9819,216.163776 229.735415,216.163776" id="Fill-65"></path>
                <path d="M236.900692,216.163776 C236.654207,216.163776 236.454161,216.029647 236.454161,215.864381 L236.454161,0.299395812 C236.454161,0.134129324 236.654207,0 236.900692,0 C237.147178,0 237.347224,0.134129324 237.347224,0.299395812 L237.347224,215.864381 C237.347224,216.029647 237.147178,216.163776 236.900692,216.163776" id="Fill-67"></path>
                <path d="M244.06597,216.163776 C243.819484,216.163776 243.619438,216.029647 243.619438,215.864381 L243.619438,0.299395812 C243.619438,0.134129324 243.819484,0 244.06597,0 C244.312455,0 244.512502,0.134129324 244.512502,0.299395812 L244.512502,215.864381 C244.512502,216.029647 244.312455,216.163776 244.06597,216.163776" id="Fill-69"></path>
                <path d="M251.231247,216.163776 C250.984762,216.163776 250.784716,216.029647 250.784716,215.864381 L250.784716,0.299395812 C250.784716,0.134129324 250.984762,0 251.231247,0 C251.477733,0 251.677779,0.134129324 251.677779,0.299395812 L251.677779,215.864381 C251.677779,216.029647 251.477733,216.163776 251.231247,216.163776" id="Fill-71"></path>
                <path d="M258.396525,216.163776 C258.15004,216.163776 257.949993,216.029647 257.949993,215.864381 L257.949993,0.299395812 C257.949993,0.134129324 258.15004,0 258.396525,0 C258.643011,0 258.843057,0.134129324 258.843057,0.299395812 L258.843057,215.864381 C258.843057,216.029647 258.643011,216.163776 258.396525,216.163776" id="Fill-73"></path>
                <path d="M265.561803,216.163776 C265.315317,216.163776 265.115271,216.029647 265.115271,215.864381 L265.115271,0.299395812 C265.115271,0.134129324 265.315317,0 265.561803,0 C265.808288,0 266.008334,0.134129324 266.008334,0.299395812 L266.008334,215.864381 C266.008334,216.029647 265.808288,216.163776 265.561803,216.163776" id="Fill-75"></path>
                <path d="M272.72708,216.163776 C272.480595,216.163776 272.280548,216.029647 272.280548,215.864381 L272.280548,0.299395812 C272.280548,0.134129324 272.480595,0 272.72708,0 C272.973566,0 273.173612,0.134129324 273.173612,0.299395812 L273.173612,215.864381 C273.173612,216.029647 272.973566,216.163776 272.72708,216.163776" id="Fill-77"></path>
                <path d="M279.892358,216.163776 C279.645872,216.163776 279.445826,216.029647 279.445826,215.864381 L279.445826,0.299395812 C279.445826,0.134129324 279.645872,0 279.892358,0 C280.138843,0 280.33889,0.134129324 280.33889,0.299395812 L280.33889,215.864381 C280.33889,216.029647 280.138843,216.163776 279.892358,216.163776" id="Fill-79"></path>
                <path d="M287.057635,216.163776 C286.81115,216.163776 286.611104,216.029647 286.611104,215.864381 L286.611104,0.299395812 C286.611104,0.134129324 286.81115,0 287.057635,0 C287.304121,0 287.504167,0.134129324 287.504167,0.299395812 L287.504167,215.864381 C287.504167,216.029647 287.304121,216.163776 287.057635,216.163776" id="Fill-81"></path>
                <path d="M294.222913,216.163776 C293.976427,216.163776 293.776381,216.029647 293.776381,215.864381 L293.776381,0.299395812 C293.776381,0.134129324 293.976427,0 294.222913,0 C294.469399,0 294.669445,0.134129324 294.669445,0.299395812 L294.669445,215.864381 C294.669445,216.029647 294.469399,216.163776 294.222913,216.163776" id="Fill-83"></path>
                <path d="M301.388191,216.163776 C301.141705,216.163776 300.941659,216.029647 300.941659,215.864381 L300.941659,0.299395812 C300.941659,0.134129324 301.141705,0 301.388191,0 C301.634676,0 301.834722,0.134129324 301.834722,0.299395812 L301.834722,215.864381 C301.834722,216.029647 301.634676,216.163776 301.388191,216.163776" id="Fill-85"></path>
                <path d="M308.553468,216.163776 C308.306983,216.163776 308.106936,216.029647 308.106936,215.864381 L308.106936,0.299395812 C308.106936,0.134129324 308.306983,0 308.553468,0 C308.799954,0 309,0.134129324 309,0.299395812 L309,215.864381 C309,216.029647 308.799954,216.163776 308.553468,216.163776" id="Fill-87"></path>
            </g>
        </g>
    </g>
</svg>