<?xml version="1.0" encoding="UTF-8"?>
<svg width="279px" height="280px" viewBox="0 0 279 280" version="1.1" xmlns="http://www.w3.org/2000/svg" xmlns:xlink="http://www.w3.org/1999/xlink">
    <!-- Generator: Sketch 54.1 (76490) - https://sketchapp.com -->
    <title>Group 42</title>
    <desc>Created with Sketch.</desc>
    <defs>
        <polygon id="path-1" points="0.000190443686 0.461047619 278.539126 0.461047619 278.539126 279.047619 0.000190443686 279.047619"></polygon>
    </defs>
    <g id="Page-1" stroke="none" stroke-width="1" fill="none" fill-rule="evenodd">
        <g id="Desktop---HD-Display-Copy-4" transform="translate(-1071.000000, -5314.000000)">
            <g id="Group-42" transform="translate(1071.000000, 5314.000000)">
                <g id="Group-3" transform="translate(0.000000, 0.491429)">
                    <mask id="mask-2" fill="white">
                        <use xlink:href="#path-1"></use>
                    </mask>
                    <g id="Clip-2"></g>
                    <path d="M139.269754,0.461047619 C62.3533577,0.461047619 0.000190443686,62.8248571 0.000190443686,139.754381 C0.000190443686,216.683905 62.3533577,279.047714 139.269754,279.047714 C216.186149,279.047714 278.539317,216.683905 278.539317,139.754381 C278.539317,62.8248571 216.186149,0.461047619 139.269754,0.461047619 M139.269754,1.41342857 C176.215829,1.41342857 210.9499,15.8029524 237.074965,41.9324762 C263.199078,68.0610476 277.587098,102.802 277.587098,139.754381 C277.587098,176.706762 263.199078,211.446762 237.074965,237.576286 C210.9499,263.704857 176.215829,278.095333 139.269754,278.095333 C102.323678,278.095333 67.5896068,263.704857 41.464542,237.576286 C15.3404294,211.446762 0.952408874,176.706762 0.952408874,139.754381 C0.952408874,102.802 15.3404294,68.0610476 41.464542,41.9324762 C67.5896068,15.8029524 102.323678,1.41342857 139.269754,1.41342857" id="Fill-1" fill="#CBE2E1" mask="url(#mask-2)"></path>
                </g>
                <path d="M139.269754,7.9167619 C66.1993679,7.9167619 6.96376382,67.1624762 6.96376382,140.245333 C6.96376382,213.329143 66.1993679,272.574857 139.269754,272.574857 C212.340139,272.574857 271.575743,213.329143 271.575743,140.245333 C271.575743,67.1624762 212.340139,7.9167619 139.269754,7.9167619 M139.269754,8.86914286 C174.356146,8.86914286 207.340992,22.5348571 232.151044,47.3481905 C256.961095,72.1624762 270.623525,105.153905 270.623525,140.245333 C270.623525,175.337714 256.961095,208.329143 232.151044,233.142476 C207.340992,257.956762 174.356146,271.622476 139.269754,271.622476 C104.183361,271.622476 71.1985147,257.956762 46.3884635,233.142476 C21.5784123,208.329143 7.91598225,175.337714 7.91598225,140.245333 C7.91598225,105.153905 21.5784123,72.1624762 46.3884635,47.3481905 C71.1985147,22.5348571 104.183361,8.86914286 139.269754,8.86914286" id="Fill-4" fill="#CBE2E1"></path>
                <path d="M139.269754,14.882 C70.0453782,14.882 13.9273372,71.009619 13.9273372,140.24581 C13.9273372,209.482 70.0453782,265.609619 139.269754,265.609619 C208.494129,265.609619 264.61217,209.482 264.61217,140.24581 C264.61217,71.009619 208.494129,14.882 139.269754,14.882 M139.269754,15.834381 C172.496463,15.834381 203.732085,28.7753333 227.227122,52.2734286 C250.721208,75.7724762 263.659952,107.014381 263.659952,140.24581 C263.659952,173.477238 250.721208,204.720095 227.227122,228.21819 C203.732085,251.716286 172.496463,264.657238 139.269754,264.657238 C106.043044,264.657238 74.8064703,251.716286 51.312385,228.21819 C27.8182997,204.720095 14.8795556,173.477238 14.8795556,140.24581 C14.8795556,107.014381 27.8182997,75.7724762 51.312385,52.2734286 C74.8064703,28.7753333 106.043044,15.834381 139.269754,15.834381" id="Fill-6" fill="#CBE2E1"></path>
                <path d="M139.269754,21.8462857 C73.8904362,21.8462857 20.8909106,74.8558095 20.8909106,140.245333 C20.8909106,205.63581 73.8904362,258.645333 139.269754,258.645333 C204.648119,258.645333 257.648597,205.63581 257.648597,140.245333 C257.648597,74.8558095 204.648119,21.8462857 139.269754,21.8462857 M139.269754,22.7986667 C170.634876,22.7986667 200.124129,35.0158095 222.303201,57.1977143 C244.482272,79.3805714 256.696378,108.874857 256.696378,140.245333 C256.696378,171.616762 244.482272,201.111048 222.303201,223.293905 C200.124129,245.476762 170.634876,257.692952 139.269754,257.692952 C107.903678,257.692952 78.4153782,245.476762 56.2363065,223.293905 C34.0572348,201.111048 21.843129,171.616762 21.843129,140.245333 C21.843129,108.874857 34.0572348,79.3805714 56.2363065,57.1977143 C78.4153782,35.0158095 107.903678,22.7986667 139.269754,22.7986667" id="Fill-8" fill="#CBE2E1"></path>
                <path d="M139.269754,28.8110476 C77.7364464,28.8110476 27.8535317,78.7015238 27.8535317,140.245333 C27.8535317,201.789143 77.7364464,251.680571 139.269754,251.680571 C200.803061,251.680571 250.685023,201.789143 250.685023,140.245333 C250.685023,78.7015238 200.803061,28.8110476 139.269754,28.8110476 M139.269754,29.7634286 C168.775194,29.7634286 196.515221,41.2558095 217.378327,62.1234286 C238.242385,82.9900952 249.732805,110.734857 249.732805,140.245333 C249.732805,169.756762 238.242385,197.501524 217.378327,218.369143 C196.515221,239.23581 168.775194,250.72819 139.269754,250.72819 C109.764313,250.72819 82.024286,239.23581 61.160228,218.369143 C40.2971222,197.501524 28.8057502,169.756762 28.8057502,140.245333 C28.8057502,110.734857 40.2971222,82.9900952 61.160228,62.1234286 C82.024286,41.2558095 109.764313,29.7634286 139.269754,29.7634286" id="Fill-10" fill="#CBE2E1"></path>
                <path d="M139.269754,35.7758095 C81.5824567,35.7758095 34.8180573,82.5481905 34.8180573,140.245333 C34.8180573,197.942476 81.5824567,244.71581 139.269754,244.71581 C196.957051,244.71581 243.72145,197.942476 243.72145,140.245333 C243.72145,82.5481905 196.957051,35.7758095 139.269754,35.7758095 M139.269754,36.7281905 C166.915511,36.7281905 192.906313,47.4958095 212.454405,67.0472381 C232.004402,86.599619 242.769231,112.594857 242.769231,140.245333 C242.769231,167.896762 232.004402,193.892 212.454405,213.444381 C192.906313,232.99581 166.915511,243.763429 139.269754,243.763429 C111.623996,243.763429 85.6331939,232.99581 66.0841495,213.444381 C46.5351051,193.892 35.7702758,167.896762 35.7702758,140.245333 C35.7702758,112.594857 46.5351051,86.599619 66.0841495,67.0472381 C85.6331939,47.4958095 111.623996,36.7281905 139.269754,36.7281905" id="Fill-12" fill="#CBE2E1"></path>
                <path d="M139.269754,42.7400952 C85.4275147,42.7400952 41.7806785,86.3953333 41.7806785,140.24581 C41.7806785,194.096286 85.4275147,237.751524 139.269754,237.751524 C193.11104,237.751524 236.758829,194.096286 236.758829,140.24581 C236.758829,86.3953333 193.11104,42.7400952 139.269754,42.7400952 M139.269754,43.6924762 C192.499716,43.6924762 235.80661,87.0058095 235.80661,140.24581 C235.80661,193.484857 192.499716,236.799143 139.269754,236.799143 C86.0397911,236.799143 42.7328969,193.484857 42.7328969,140.24581 C42.7328969,87.0058095 86.0397911,43.6924762 139.269754,43.6924762" id="Fill-14" fill="#CBE2E1"></path>
                <path d="M139.269754,49.7053333 C89.2735249,49.7053333 48.7452041,90.2415238 48.7452041,140.245333 C48.7452041,190.250095 89.2735249,230.786286 139.269754,230.786286 C189.26503,230.786286 229.794303,190.250095 229.794303,140.245333 C229.794303,90.2415238 189.26503,49.7053333 139.269754,49.7053333 M139.269754,50.6577143 C188.660371,50.6577143 228.842085,90.8462857 228.842085,140.245333 C228.842085,189.645333 188.660371,229.833905 139.269754,229.833905 C89.8791358,229.833905 49.6974225,189.645333 49.6974225,140.245333 C49.6974225,90.8462857 89.8791358,50.6577143 139.269754,50.6577143" id="Fill-16" fill="#CBE2E1"></path>
                <path d="M139.269754,56.669619 C93.1195352,56.669619 55.7078253,94.0877143 55.7078253,140.24581 C55.7078253,186.403905 93.1195352,223.822 139.269754,223.822 C185.419972,223.822 222.831682,186.403905 222.831682,140.24581 C222.831682,94.0877143 185.419972,56.669619 139.269754,56.669619 M139.269754,57.622 C184.821027,57.622 221.879463,94.6867619 221.879463,140.24581 C221.879463,185.804857 184.821027,222.869619 139.269754,222.869619 C93.7184805,222.869619 56.6600437,185.804857 56.6600437,140.24581 C56.6600437,94.6867619 93.7184805,57.622 139.269754,57.622" id="Fill-18" fill="#CBE2E1"></path>
                <path d="M139.269754,63.6342857 C96.9655454,63.6342857 62.6713986,97.9342857 62.6713986,140.245714 C62.6713986,182.557143 96.9655454,216.857143 139.269754,216.857143 C181.573962,216.857143 215.867156,182.557143 215.867156,140.245714 C215.867156,97.9342857 181.573962,63.6342857 139.269754,63.6342857 M139.269754,64.5866667 C180.981682,64.5866667 214.914938,98.5266667 214.914938,140.245714 C214.914938,181.964762 180.981682,215.904762 139.269754,215.904762 C97.5578253,215.904762 63.6236171,181.964762 63.6236171,140.245714 C63.6236171,98.5266667 97.5578253,64.5866667 139.269754,64.5866667" id="Fill-20" fill="#CBE2E1"></path>
                <path d="M139.269754,70.5990476 C100.811556,70.5990476 69.634972,101.780952 69.634972,140.245714 C69.634972,178.710476 100.811556,209.892381 139.269754,209.892381 C177.727952,209.892381 208.904535,178.710476 208.904535,140.245714 C208.904535,101.780952 177.727952,70.5990476 139.269754,70.5990476 M139.269754,71.5514286 C177.141385,71.5514286 207.952317,102.367619 207.952317,140.245714 C207.952317,178.12381 177.141385,208.94 139.269754,208.94 C101.398122,208.94 70.5871904,178.12381 70.5871904,140.245714 C70.5871904,102.367619 101.398122,71.5514286 139.269754,71.5514286" id="Fill-22" fill="#CBE2E1"></path>
                <path d="M139.269754,77.5638095 C104.656614,77.5638095 76.5985454,105.627619 76.5985454,140.245714 C76.5985454,174.864762 104.656614,202.927619 139.269754,202.927619 C173.881941,202.927619 201.94001,174.864762 201.94001,140.245714 C201.94001,105.627619 173.881941,77.5638095 139.269754,77.5638095 M139.269754,78.5161905 C173.301088,78.5161905 200.987791,106.208571 200.987791,140.245714 C200.987791,174.28381 173.301088,201.975238 139.269754,201.975238 C105.237467,201.975238 77.5507638,174.28381 77.5507638,140.245714 C77.5507638,106.208571 105.237467,78.5161905 139.269754,78.5161905" id="Fill-24" fill="#CBE2E1"></path>
                <path d="M139.269754,84.5285714 C108.502624,84.5285714 83.5621188,109.473333 83.5621188,140.245714 C83.5621188,171.017143 108.502624,195.962857 139.269754,195.962857 C170.036883,195.962857 194.977388,171.017143 194.977388,140.245714 C194.977388,109.473333 170.036883,84.5285714 139.269754,84.5285714 M139.269754,85.4809524 C169.461743,85.4809524 194.02517,110.048571 194.02517,140.245714 C194.02517,170.442857 169.461743,195.010476 139.269754,195.010476 C109.076812,195.010476 84.5143372,170.442857 84.5143372,140.245714 C84.5143372,110.048571 109.076812,85.4809524 139.269754,85.4809524" id="Fill-26" fill="#CBE2E1"></path>
                <path d="M139.269754,91.4928571 C112.349586,91.4928571 90.5256922,113.320476 90.5256922,140.245238 C90.5256922,167.170952 112.349586,188.998571 139.269754,188.998571 C166.189921,188.998571 188.013815,167.170952 188.013815,140.245238 C188.013815,113.320476 166.189921,91.4928571 139.269754,91.4928571 M139.269754,92.4452381 C165.622399,92.4452381 187.061597,113.889048 187.061597,140.245238 C187.061597,166.602381 165.622399,188.04619 139.269754,188.04619 C112.917109,188.04619 91.4779106,166.602381 91.4779106,140.245238 C91.4779106,113.889048 112.917109,92.4452381 139.269754,92.4452381" id="Fill-28" fill="#CBE2E1"></path>
                <path d="M139.269754,98.4580952 C116.194644,98.4580952 97.4883133,117.167619 97.4883133,140.245714 C97.4883133,163.324762 116.194644,182.033333 139.269754,182.033333 C162.343911,182.033333 181.050242,163.324762 181.050242,140.245714 C181.050242,117.167619 162.343911,98.4580952 139.269754,98.4580952 M139.269754,99.4104762 C161.783054,99.4104762 180.098023,117.728571 180.098023,140.245714 C180.098023,162.762857 161.783054,181.080952 139.269754,181.080952 C116.756453,181.080952 98.4405317,162.762857 98.4405317,140.245714 C98.4405317,117.728571 116.756453,99.4104762 139.269754,99.4104762" id="Fill-30" fill="#CBE2E1"></path>
                <path d="M139.269754,105.422381 C120.040655,105.422381 104.452839,121.01381 104.452839,140.245238 C104.452839,159.478571 120.040655,175.069048 139.269754,175.069048 C158.498853,175.069048 174.086668,159.478571 174.086668,140.245238 C174.086668,121.01381 158.498853,105.422381 139.269754,105.422381 M139.269754,106.374762 C157.942757,106.374762 173.13445,121.569048 173.13445,140.245238 C173.13445,158.922381 157.942757,174.116667 139.269754,174.116667 C120.59675,174.116667 105.405057,158.922381 105.405057,140.245238 C105.405057,121.569048 120.59675,106.374762 139.269754,106.374762" id="Fill-32" fill="#CBE2E1"></path>
                <path d="M139.269754,112.387143 C123.886665,112.387143 111.41546,124.859524 111.41546,140.245238 C111.41546,155.631905 123.886665,168.104286 139.269754,168.104286 C154.652842,168.104286 167.123095,155.631905 167.123095,140.245238 C167.123095,124.859524 154.652842,112.387143 139.269754,112.387143 M139.269754,113.339524 C154.103412,113.339524 166.170876,125.409048 166.170876,140.245238 C166.170876,155.082381 154.103412,167.151905 139.269754,167.151905 C124.436095,167.151905 112.367678,155.082381 112.367678,140.245238 C112.367678,125.409048 124.436095,113.339524 139.269754,113.339524" id="Fill-34" fill="#CBE2E1"></path>
                <path d="M139.269754,119.351905 C127.732675,119.351905 118.379986,128.70619 118.379986,140.245238 C118.379986,151.785238 127.732675,161.139524 139.269754,161.139524 C150.806832,161.139524 160.159522,151.785238 160.159522,140.245238 C160.159522,128.70619 150.806832,119.351905 139.269754,119.351905 M139.269754,120.304286 C150.264068,120.304286 159.207303,129.25 159.207303,140.245238 C159.207303,151.241429 150.264068,160.187143 139.269754,160.187143 C128.27544,160.187143 119.332204,151.241429 119.332204,140.245238 C119.332204,129.25 128.27544,120.304286 139.269754,120.304286" id="Fill-36" fill="#CBE2E1"></path>
                <path d="M139.269754,126.31619 C131.577733,126.31619 125.342607,132.553333 125.342607,140.245714 C125.342607,147.939048 131.577733,154.175238 139.269754,154.175238 C146.960822,154.175238 153.1969,147.939048 153.1969,140.245714 C153.1969,132.553333 146.960822,126.31619 139.269754,126.31619 M139.269754,127.268571 C146.423771,127.268571 152.244682,133.090476 152.244682,140.245714 C152.244682,147.401905 146.423771,153.222857 139.269754,153.222857 C132.114784,153.222857 126.294825,147.401905 126.294825,140.245714 C126.294825,133.090476 132.114784,127.268571 139.269754,127.268571" id="Fill-38" fill="#CBE2E1"></path>
                <path d="M139.269754,133.281333 C135.423743,133.281333 132.30618,136.399429 132.30618,140.245143 C132.30618,144.092762 135.423743,147.209905 139.269754,147.209905 C143.115764,147.209905 146.232375,144.092762 146.232375,140.245143 C146.232375,136.399429 143.115764,133.281333 139.269754,133.281333 M139.269754,134.233714 C142.583474,134.233714 145.280156,136.930857 145.280156,140.245143 C145.280156,143.560381 142.583474,146.257524 139.269754,146.257524 C135.955081,146.257524 133.258399,143.560381 133.258399,140.245143 C133.258399,136.930857 135.955081,134.233714 139.269754,134.233714" id="Fill-40" fill="#CBE2E1"></path>
            </g>
        </g>
    </g>
</svg>