<svg xmlns="http://www.w3.org/2000/svg" viewBox="0 0 40.70996 39.84271">
  <defs>
    <style>
      .artwork {
        fill: #dbae55;
      }
    </style>
  </defs>
  <path class="artwork" d="M20.03516,25.10962a.60526.60526,0,0,1,0,1.21051H9.56439a.60526.60526,0,0,1,0-1.21051ZM21.42657,13.035H9.56439a.60526.60526,0,0,0,0,1.21051H21.42657a.60526.60526,0,0,0,0-1.21051ZM40.7099,27.44781a1.06276,1.06276,0,0,1-.31274.75629l-10.352,10.3653a1.06824,1.06824,0,0,1-1.5102,0L22.2583,32.28516a1.07222,1.07222,0,0,1,0-1.51264l1.96594-1.96844a1.05787,1.05787,0,0,1,.75482-.31311h.00049a1.05929,1.05929,0,0,1,.75483.31262l3.55541,3.56L36.92108,24.723a1.09211,1.09211,0,0,1,1.51068.00055l1.9654,1.96845A1.06056,1.06056,0,0,1,40.7099,27.44781Zm-1.26733,0-1.76667-1.769L30.04517,33.3194a1.06877,1.06877,0,0,1-1.5102,0l-3.55542-3.55951-1.76666,1.769,6.0769,6.08472ZM22.031,19.74274a.605.605,0,0,0-.60444-.60529H9.56439a.60529.60529,0,0,0,0,1.21057H21.42657A.605.605,0,0,0,22.031,19.74274ZM25.54236,38.6322H1.53107a.32288.32288,0,0,1-.32221-.32318V6.97852a.32124.32124,0,0,1,.32062-.3216H4.64026V33.66528a1.53373,1.53373,0,0,0,1.53119,1.53315H21.27a.60526.60526,0,0,0,0-1.21051H6.17145a.32281.32281,0,0,1-.32221-.32264V1.53314a.32281.32281,0,0,1,.32221-.32263H31.90894a.323.323,0,0,1,.32275.32263V26.12579a.60449.60449,0,1,0,1.209,0V1.53314A1.53416,1.53416,0,0,0,31.90894,0H6.17145A1.53369,1.53369,0,0,0,4.64026,1.53314V5.44641H1.52948A1.53246,1.53246,0,0,0-.00006,6.97852V38.309a1.53411,1.53411,0,0,0,1.53113,1.53369H25.54236a.60526.60526,0,0,0,0-1.21051ZM28.976,25.10962h-3.9234a.60526.60526,0,0,0,0,1.21051H28.976a.60526.60526,0,0,0,0-1.21051Zm0-12.07465h-3.9234a.60526.60526,0,0,0,0,1.21051H28.976a.60526.60526,0,0,0,0-1.21051Zm0,6.10248h-3.9234a.60529.60529,0,0,0,0,1.21057H28.976a.60529.60529,0,0,0,0-1.21057ZM28.4314,9.80957H9.645A1.13217,1.13217,0,0,1,8.51483,8.678V5.13379A1.13221,1.13221,0,0,1,9.645,4.0022H28.4314a1.13216,1.13216,0,0,1,1.13012,1.13159V8.678A1.13212,1.13212,0,0,1,28.4314,9.80957Zm-.07831-4.59686H9.72382V8.59906H28.35309Z" transform="translate(0.00006)"/>
</svg>
